<?xml version="1.0" encoding="UTF-8"?>
<svg id="Layer_1" xmlns="http://www.w3.org/2000/svg" version="1.1" viewBox="0 0 100 100">
  <!-- Generator: Adobe Illustrator 29.1.0, SVG Export Plug-In . SVG Version: 2.1.0 Build 142)  -->
  <defs>
    <style>
      .st0 {
        isolation: isolate;
      }

      .st1 {
        fill: none;
        stroke: #131b2d;
        stroke-miterlimit: 10;
        stroke-width: 1.33px;
      }

      .st2 {
        fill: #131b2d;
      }
    </style>
  </defs>
  <g>
    <g class="st0">
      <g class="st0">
        <path class="st2" d="M33.26,40.53c1.72-1.57,3.17-3.2,4.35-4.91s1.77-3.39,1.77-5.04c0-1.55-.38-2.78-1.13-3.67-.75-.9-1.97-1.34-3.64-1.34s-2.88.51-3.78,1.52-1.38,2.37-1.45,4.07h-3.15c.1-2.68.91-4.74,2.44-6.2s3.5-2.19,5.91-2.19,4.41.68,5.86,2.04c1.45,1.36,2.17,3.24,2.17,5.63,0,1.98-.59,3.91-1.77,5.79s-2.53,3.52-4.03,4.95c-1.51,1.42-3.43,3.08-5.77,4.96h12.33v2.72h-17.24v-2.33c3.03-2.44,5.41-4.44,7.13-6Z"/>
        <path class="st2" d="M49.14,26.3c1.34-2.31,3.68-3.46,7.03-3.46s5.65,1.15,6.99,3.46,2.01,5.51,2.01,9.62-.67,7.43-2.01,9.75-3.67,3.48-6.99,3.48-5.69-1.16-7.03-3.48-2.01-5.57-2.01-9.75.67-7.32,2.01-9.62ZM61.52,30.64c-.27-1.45-.84-2.61-1.68-3.49-.85-.88-2.07-1.33-3.67-1.33s-2.86.44-3.71,1.33c-.85.88-1.41,2.05-1.68,3.49-.27,1.45-.41,3.21-.41,5.29s.14,3.95.41,5.41.84,2.63,1.68,3.51c.85.88,2.08,1.33,3.71,1.33s2.83-.44,3.67-1.33c.85-.88,1.41-2.05,1.68-3.51s.41-3.26.41-5.41-.14-3.84-.41-5.29Z"/>
      </g>
    </g>
    <g class="st0">
      <g class="st0">
        <path class="st2" d="M79.83,30.41h-4.43v4.49h-1.77v-4.49h-4.41v-1.6h4.41v-4.51h1.77v4.51h4.43s0,1.6,0,1.6Z"/>
      </g>
    </g>
  </g>
  <g class="st0">
    <g class="st0">
      <path class="st2" d="M27,61.42l-5.69,10.88v6.59h-2.28v-6.59l-5.71-10.88h2.53l4.31,8.85,4.31-8.85s2.53,0,2.53,0Z"/>
      <path class="st2" d="M31.69,63.28v5.84h6.37v1.88h-6.37v6.01h7.12v1.88h-9.4v-17.49h9.4v1.88s-7.12,0-7.12,0Z"/>
      <path class="st2" d="M52.58,75h-7.62l-1.4,3.88h-2.41l6.31-17.37h2.63l6.29,17.37h-2.41l-1.4-3.88h0ZM51.93,73.15l-3.16-8.82-3.16,8.82h6.32Z"/>
      <path class="st2" d="M68.35,78.89l-4.16-7.14h-2.76v7.14h-2.28v-17.47h5.64c1.32,0,2.43.23,3.35.68.91.45,1.59,1.06,2.04,1.83.45.77.68,1.65.68,2.63,0,1.2-.35,2.26-1.04,3.18s-1.73,1.53-3.12,1.83l4.39,7.32h-2.74ZM61.43,69.92h3.36c1.24,0,2.16-.3,2.78-.91.62-.61.93-1.42.93-2.44s-.31-1.84-.92-2.41c-.61-.57-1.54-.85-2.79-.85h-3.36v6.62h0Z"/>
      <path class="st2" d="M76.83,78.45c-.91-.41-1.62-.98-2.14-1.7-.52-.73-.79-1.57-.8-2.52h2.43c.08.82.42,1.51,1.01,2.07s1.46.84,2.59.84,1.94-.27,2.57-.81.94-1.24.94-2.09c0-.67-.18-1.21-.55-1.63s-.83-.74-1.38-.95c-.55-.22-1.29-.45-2.23-.7-1.15-.3-2.08-.6-2.77-.9-.69-.3-1.29-.77-1.78-1.42-.49-.64-.74-1.51-.74-2.59,0-.95.24-1.8.73-2.53.48-.74,1.17-1.3,2.04-1.7.88-.4,1.88-.6,3.02-.6,1.64,0,2.98.41,4.02,1.23,1.04.82,1.63,1.91,1.77,3.26h-2.51c-.08-.67-.43-1.26-1.05-1.77s-1.44-.76-2.46-.76c-.95,0-1.73.25-2.33.74s-.9,1.18-.9,2.07c0,.63.18,1.15.54,1.55s.8.71,1.33.91c.53.21,1.27.45,2.22.71,1.15.32,2.08.63,2.78.94.7.31,1.3.79,1.8,1.43s.75,1.52.75,2.62c0,.85-.23,1.65-.68,2.41s-1.12,1.36-2,1.83c-.89.47-1.93.7-3.13.7s-2.18-.21-3.09-.61v-.03Z"/>
    </g>
  </g>
  <rect class="st1" x="9.37" y="7.98" width="81.27" height="83.24" rx="6.67" ry="6.67"/>
</svg>