<?xml version="1.0" encoding="UTF-8"?>
<svg xmlns="http://www.w3.org/2000/svg" version="1.1" viewBox="0 0 1820 386">
  <defs>
    <style>
      .cls-1 {
        fill: #010101;
      }

      .cls-2 {
        fill: #fff;
      }

      .cls-3 {
        fill: #4e4f4f;
      }

      .cls-4 {
        fill: #36519f;
      }

      .cls-5 {
        fill: #066634;
      }
    </style>
  </defs>
  <!-- Generator: Adobe Illustrator 28.7.0, SVG Export Plug-In . SVG Version: 1.2.0 Build 136)  -->
  <g>
    <g id="Layer_1">
      <g>
        <rect class="cls-2" width="1820" height="386"/>
        <g>
          <rect class="cls-3" x="592.2" y="40.8" width="5" height="304.5"/>
          <g>
            <polygon class="cls-5" points="1003 197.9 889.2 197.9 887.3 197.9 858.6 197.9 858.6 344.1 889.2 344.1 889.2 227.7 1003 227.7 1003 197.9"/>
            <polygon class="cls-5" points="818.5 158.8 704.6 158.8 704.6 188.7 818.5 188.7 820.4 188.7 849 188.7 849 42.4 818.5 42.4 818.5 158.8"/>
            <circle class="cls-5" cx="794.8" cy="135.8" r="20.9"/>
            <circle class="cls-5" cx="766.2" cy="108.4" r="17.7" transform="translate(372.8 774.8) rotate(-67.5)"/>
            <path class="cls-5" d="M728.6,84.2c0,7.6,6.2,13.8,13.8,13.8s13.8-6.2,13.8-13.8-6.2-13.8-13.8-13.8-13.8,6.2-13.8,13.8Z"/>
            <circle class="cls-5" cx="723.6" cy="65.5" r="9.9"/>
            <path class="cls-5" d="M714.6,51.3c0-3.8-3-6.8-6.8-6.8s-6.8,3-6.8,6.8,3,6.8,6.8,6.8,6.8-3,6.8-6.8Z"/>
            <circle class="cls-5" cx="912.9" cy="251.4" r="20.9" transform="translate(-33.3 216.4) rotate(-13.3)"/>
            <circle class="cls-5" cx="941.5" cy="278.8" r="17.7" transform="translate(-38.9 223.7) rotate(-13.3)"/>
            <path class="cls-5" d="M979.1,302.9c0-7.6-6.2-13.8-13.8-13.8s-13.8,6.2-13.8,13.8,6.2,13.8,13.8,13.8,13.8-6.2,13.8-13.8Z"/>
            <path class="cls-5" d="M984.1,311.9c-5.4,0-9.9,4.4-9.9,9.9s4.4,9.9,9.9,9.9,9.9-4.4,9.9-9.9-4.4-9.9-9.9-9.9Z"/>
            <circle class="cls-5" cx="999.9" cy="335.9" r="6.8"/>
            <path class="cls-5" d="M1385.4,125c-3.4-1.8-8.6-3.5-15.7-5.2-7.1-1.7-11.6-3.3-13.4-4.8-1.4-1.2-2.2-2.7-2.2-4.4s.8-3.4,2.3-4.5c2.4-1.7,5.7-2.6,9.9-2.6s7.2.8,9.2,2.4c2.1,1.6,3.4,4.3,4,8l14.6-.6c-.2-6.6-2.6-11.9-7.2-15.9-4.6-4-11.4-6-20.5-6s-10.3.8-14.2,2.5c-3.9,1.7-6.9,4.1-9,7.3-2.1,3.2-3.1,6.6-3.1,10.3,0,5.7,2.2,10.6,6.7,14.5,3.2,2.8,8.6,5.2,16.4,7.1,6.1,1.5,10,2.6,11.7,3.1,2.5.9,4.2,1.9,5.2,3.1,1,1.2,1.5,2.6,1.5,4.4,0,2.7-1.2,5-3.6,7s-5.9,3-10.6,3-7.9-1.1-10.6-3.4c-2.6-2.2-4.3-5.7-5.2-10.5l-14.2,1.4c.9,8.1,3.9,14.2,8.8,18.4,4.9,4.2,11.9,6.3,21,6.3s11.5-.9,15.7-2.6c4.2-1.8,7.4-4.4,9.8-8.1s3.4-7.5,3.4-11.6-1-8.4-2.9-11.5-4.6-5.6-8-7.3h0Z"/>
            <path class="cls-5" d="M1538.9,154.6c-.9,0-1.7-.2-2.3-.7s-1.1-1-1.2-1.8c-.2-.7-.3-3.2-.3-7.5v-21.1h9.5v-11h-9.5v-18.5l-13.9,8.1v10.4h-6.3v11h6.3v22.8c0,4.9.2,8.1.4,9.8.4,2.3,1,4.1,1.9,5.4.9,1.3,2.4,2.4,4.4,3.2s4.2,1.3,6.8,1.3c4.1,0,7.7-.7,10.9-2.1l-1.2-10.7c-2.4.9-4.3,1.3-5.6,1.3h0Z"/>
            <path class="cls-5" d="M1429.1,149.7l-12.5-37.1h-14.7l19.9,52.4c-.8,2.9-2,5.3-3.5,7.2-1.5,1.9-3.9,2.8-7.1,2.8s-3.7-.2-5.9-.6l1.2,10.8c2.6.6,5.2.8,7.8.8s5-.3,7.1-.8,3.8-1.3,5.3-2.3,2.7-2.3,3.8-3.9c1.1-1.6,2.3-3.9,3.5-7l3.3-9.1,18.5-50.3h-14.3l-12.2,37.1Z"/>
            <path class="cls-5" d="M1592.5,119.1c-4.5-5.1-10.6-7.7-18.4-7.7s-12.7,2.4-17.2,7.4c-4.5,4.9-6.8,11.7-6.8,20.4s1.7,13.3,5.2,18c4.4,5.9,11.1,8.9,20.2,8.9s10.5-1.3,14.4-4,6.6-6.5,8.4-11.6l-13.8-2.3c-.8,2.6-1.9,4.5-3.3,5.7-1.5,1.2-3.3,1.8-5.5,1.8-3.2,0-5.8-1.1-8-3.4s-3.2-5.5-3.3-9.6h34.7c.2-10.6-1.9-18.5-6.4-23.6h0ZM1564.6,134.2c0-3.8.9-6.8,2.9-9,2-2.2,4.5-3.3,7.5-3.3s5.2,1,7.2,3.1,3,5.1,3.1,9.1h-20.7Z"/>
            <rect class="cls-5" x="1098.6" y="131.8" width="27.2" height="13.8"/>
            <path class="cls-5" d="M1162.9,152.5c-1.7,1.5-3.8,2.2-6.4,2.2s-6.3-1.3-8.4-3.8-3.1-6.9-3.1-13.1,1-9.6,3.1-11.9c2.1-2.4,4.8-3.6,8.2-3.6s4.7.7,6.3,2.1,2.7,3.4,3.1,6.2l13.6-2.5c-1.6-5.6-4.3-9.8-8.1-12.5s-8.8-4.1-15.2-4.1-13.9,2.4-18.5,7.2c-4.6,4.8-6.8,11.5-6.8,20.2s2.3,15.2,6.8,20c4.6,4.8,10.7,7.2,18.3,7.2s12.1-1.6,16.1-4.8c4-3.2,6.7-7.9,8.1-14.1l-13.6-2.3c-.7,3.6-1.9,6.2-3.5,7.7h0Z"/>
            <path class="cls-5" d="M1739.6,138.2c-2.9-2.4-8.1-4.5-15.4-6.2-7.4-1.7-11.7-3-12.9-3.9-.9-.7-1.4-1.5-1.4-2.5s.5-2.1,1.6-2.8c1.6-1,4.2-1.5,7.8-1.5s5.1.5,6.7,1.6c1.6,1.1,2.6,2.6,3.2,4.7l13.1-2.4c-1.3-4.6-3.7-8-7.2-10.3s-8.8-3.5-16-3.5-13.1,1.5-16.6,4.6c-3.6,3.1-5.4,6.9-5.4,11.4s2.1,9,6.2,11.8c3,2,10.1,4.3,21.2,6.8,2.4.6,3.9,1.2,4.6,1.8.7.7,1,1.6,1,2.6,0,1.5-.6,2.8-1.8,3.7-1.8,1.3-4.5,2-8.1,2s-5.8-.7-7.6-2.1c-1.8-1.4-3-3.4-3.6-6.1l-13.9,2.1c1.3,5,4,8.9,8.2,11.8s9.8,4.3,16.9,4.3,13.8-1.7,17.8-5.2,6-7.6,6-12.4-1.4-7.8-4.3-10.3h0Z"/>
            <path class="cls-5" d="M1295.6,117.2c-1.3-1.7-3.2-3.1-5.7-4.2s-5.3-1.7-8.4-1.7c-6.9,0-12.7,2.9-17.2,8.9v-7.7h-12.9v52.3h13.8v-23.7c0-5.8.3-9.9,1.1-12,.7-2.2,2-3.9,3.9-5.2,1.9-1.3,4.1-2,6.4-2s3.5.5,4.8,1.4c1.3.9,2.3,2.2,2.9,3.9.6,1.7.9,5.3.9,11v26.7h13.8v-32.5c0-4-.2-7.1-.8-9.3s-1.4-4.1-2.7-5.8h0Z"/>
            <path class="cls-5" d="M1488.7,132.1c-7.4-1.7-11.7-3-12.9-3.9-.9-.7-1.4-1.5-1.4-2.5s.5-2.1,1.6-2.8c1.6-1,4.2-1.5,7.8-1.5s5.1.5,6.7,1.6c1.6,1.1,2.6,2.6,3.2,4.7l13.1-2.4c-1.3-4.6-3.7-8-7.2-10.3s-8.8-3.5-16-3.5-13.1,1.5-16.6,4.6c-3.6,3.1-5.4,6.9-5.4,11.4s2.1,9,6.2,11.8c3,2,10.1,4.3,21.2,6.8,2.4.6,3.9,1.2,4.6,1.8.7.7,1,1.6,1,2.6,0,1.5-.6,2.8-1.8,3.7-1.8,1.3-4.5,2-8.1,2s-5.8-.7-7.6-2.1c-1.8-1.4-3-3.4-3.6-6.1l-13.9,2.1c1.3,5,4,8.9,8.2,11.8s9.8,4.3,16.9,4.3,13.8-1.7,17.8-5.2,6-7.6,6-12.4-1.4-7.8-4.3-10.3c-2.9-2.4-8.1-4.5-15.4-6.2h0Z"/>
            <path class="cls-5" d="M1082.4,119.1c-4.5-5.1-10.6-7.7-18.4-7.7s-12.7,2.4-17.2,7.4c-4.5,4.9-6.8,11.7-6.8,20.4s1.7,13.3,5.2,18c4.4,5.9,11.1,8.9,20.2,8.9s10.5-1.3,14.4-4,6.6-6.5,8.4-11.6l-13.8-2.3c-.8,2.6-1.9,4.5-3.3,5.7-1.5,1.2-3.3,1.8-5.5,1.8-3.2,0-5.8-1.1-8-3.4s-3.2-5.5-3.3-9.6h34.7c.2-10.6-1.9-18.5-6.4-23.6h0ZM1054.5,134.2c0-3.8.9-6.8,2.9-9,2-2.2,4.5-3.3,7.5-3.3s5.2,1,7.2,3.1,3,5.1,3.1,9.1h-20.7Z"/>
            <path class="cls-5" d="M1678.8,113.7c-2.7-1.6-5.9-2.3-9.8-2.3s-5.9.7-8.5,2.1-5.1,3.5-7.4,6.3c-1.6-2.8-3.6-4.9-6.1-6.3-2.5-1.4-5.4-2.1-8.7-2.1-6.3,0-11.7,2.8-16.3,8.3v-7.1h-12.8v52.3h13.8v-25.4c0-5,.4-8.6,1.1-10.8.7-2.2,2-3.8,3.7-5,1.7-1.2,3.6-1.7,5.8-1.7s3.2.4,4.2,1.1c1,.7,1.8,1.8,2.3,3.3s.7,4.8.7,9.8v28.7h13.8v-25.1c0-4.9.4-8.5,1.1-10.8.8-2.3,2-4,3.7-5.2,1.7-1.2,3.5-1.8,5.5-1.8s4.6,1,5.9,2.9c.9,1.5,1.4,4.9,1.4,10v29.9h13.8v-33.4c0-5-.5-8.6-1.4-10.8-1.3-3-3.3-5.3-6-6.9h0Z"/>
            <path class="cls-5" d="M1213.6,111.4c-5.1,0-9.8,1.1-13.9,3.4-4.2,2.3-7.4,5.6-9.6,9.8s-3.4,8.7-3.4,13.3,1.1,11.1,3.4,15.3c2.3,4.2,5.6,7.4,9.9,9.5,4.3,2.2,8.9,3.2,13.7,3.2,7.8,0,14.2-2.6,19.3-7.8,5.1-5.2,7.7-11.8,7.7-19.7s-2.5-14.3-7.6-19.5c-5.1-5.1-11.5-7.7-19.4-7.7h0ZM1222.7,150.6c-2.4,2.8-5.5,4.1-9.1,4.1s-6.7-1.4-9.1-4.1-3.7-6.7-3.7-11.9,1.2-9.2,3.7-11.9c2.5-2.8,5.5-4.1,9.1-4.1s6.6,1.4,9.1,4.1c2.4,2.8,3.7,6.7,3.7,11.8s-1.2,9.3-3.7,12h0Z"/>
            <polygon class="cls-5" points="109.8 85.8 126.9 85.8 126.9 62 156 62 156 44.8 109.8 44.8 109.8 85.8"/>
            <polygon class="cls-5" points="472.2 279.7 445.9 279.7 445.9 296.8 489.4 296.8 489.4 253.9 472.2 253.9 472.2 279.7"/>
            <path class="cls-5" d="M398.5,160.9c-1.5-8-4.3-16-8.6-23.4-8.5-14.7-21.3-25.4-36-31.3l-.2.2-25.8,14.9,70.6,39.7h0Z"/>
            <path class="cls-5" d="M300.6,213.9l-25.6-14.4-12.2,12c4,6.7,8.8,12.6,14.4,17.5,6.4,5.7,13.6,10.2,21.3,13.3h.2c0-.1,25.8-15.1,25.8-15.1l-23.8-13.4h0Z"/>
            <path class="cls-5" d="M398.8,164.1l-25.8-14.9.9,81c6.2-5.3,11.7-11.7,16-19.2,8.5-14.7,11.3-31.2,9.2-46.8h-.2q0,0,0,0Z"/>
            <path class="cls-5" d="M371.2,202.2l-69.7,41.3c6.2,2.2,12.9,3.6,19.8,4h3.9v.2c.3,0,.6,0,1,0,17,0,32.7-5.8,45.1-15.5v-.2s0-29.8,0-29.8h0Z"/>
            <polygon class="cls-5" points="279.3 195.2 276.7 197.7 279.3 199.2 279.3 195.2"/>
            <path class="cls-5" d="M320.4,122.9l30.4-18c-7.7-2.7-16-4.2-24.6-4.2s-9.1.5-13.5,1.3c-1.5.3-3,.6-4.5,1,4.7,6.2,7.6,13.7,8.5,22.2l3.8-2.2h0Z"/>
          </g>
          <g>
            <polygon class="cls-4" points="889.1 42.4 858.5 42.4 858.5 188.7 887.2 188.7 889.1 188.7 1003 188.7 1003 158.8 889.1 158.8 889.1 42.4"/>
            <polygon class="cls-4" points="818.5 197.9 704.7 197.9 704.7 227.7 818.5 227.7 818.5 344.1 849.1 344.1 849.1 197.9 820.5 197.9 818.5 197.9"/>
            <circle class="cls-4" cx="912.9" cy="135.9" r="20.9"/>
            <circle class="cls-4" cx="941.5" cy="108.4" r="17.7" transform="translate(.3 219.2) rotate(-13.3)"/>
            <path class="cls-4" d="M965.3,98c7.6,0,13.8-6.2,13.8-13.8s-6.2-13.8-13.8-13.8-13.8,6.2-13.8,13.8,6.2,13.8,13.8,13.8Z"/>
            <path class="cls-4" d="M984.1,75.3c5.4,0,9.9-4.4,9.9-9.9s-4.4-9.9-9.9-9.9-9.9,4.4-9.9,9.9,4.4,9.9,9.9,9.9Z"/>
            <circle class="cls-4" cx="999.9" cy="51.3" r="6.8"/>
            <circle class="cls-4" cx="794.8" cy="251.4" r="20.9" transform="translate(55.1 635.6) rotate(-45)"/>
            <circle class="cls-4" cx="766.2" cy="278.8" r="17.7"/>
            <path class="cls-4" d="M742.4,289.2c-7.6,0-13.8,6.2-13.8,13.8s6.2,13.8,13.8,13.8,13.8-6.2,13.8-13.8-6.2-13.8-13.8-13.8Z"/>
            <circle class="cls-4" cx="723.6" cy="321.7" r="9.9"/>
            <path class="cls-4" d="M707.8,329.1c-3.8,0-6.8,3-6.8,6.8s3,6.8,6.8,6.8,6.8-3,6.8-6.8-3-6.8-6.8-6.8Z"/>
            <polygon class="cls-4" points="1195.6 236.4 1187 236.4 1178.8 245.7 1178.8 226.4 1171.9 226.4 1171.9 262.7 1178.8 262.7 1178.8 254.3 1182.1 250.9 1188.7 262.7 1196.2 262.7 1186.6 246 1195.6 236.4"/>
            <path class="cls-4" d="M1163.3,238.8c-.7-.9-1.6-1.6-2.9-2.1-1.3-.6-2.7-.8-4.2-.8-3.5,0-6.4,1.5-8.7,4.5v-3.9h-6.5v26.3h7v-11.9c0-2.9.2-5,.5-6.1.4-1.1,1-2,2-2.6s2-1,3.2-1,1.8.2,2.4.7,1.2,1.1,1.4,1.9c.3.8.4,2.7.4,5.5v13.4h7v-16.4c0-2-.1-3.6-.4-4.7s-.7-2.1-1.4-2.9h0Z"/>
            <path class="cls-4" d="M1482.2,239c-.7-.9-1.6-1.7-2.9-2.3-1.3-.6-2.7-.9-4.3-.9-3.1,0-5.8,1.3-8.1,3.9v-13.4h-7v36.3h7v-13.2c0-2.2.2-3.9.6-5s1.1-2,2-2.5,1.9-.8,3.1-.8,1.8.2,2.5.7,1.1,1,1.4,1.8.4,2.5.4,5.2v13.9h7v-15.4c0-2.4-.1-4.1-.4-5.2s-.7-2.1-1.3-3.1h0Z"/>
            <polygon class="cls-4" points="1426.4 232.5 1437.2 232.5 1437.2 262.7 1444.5 262.7 1444.5 232.5 1455.3 232.5 1455.3 226.4 1426.4 226.4 1426.4 232.5"/>
            <rect class="cls-4" x="1400.7" y="255.8" width="7" height="7"/>
            <polygon class="cls-4" points="1062.4 232.5 1073.2 232.5 1073.2 262.7 1080.6 262.7 1080.6 232.5 1091.3 232.5 1091.3 226.4 1062.4 226.4 1062.4 232.5"/>
            <path class="cls-4" d="M1527.3,238.8c-.7-.9-1.6-1.6-2.9-2.1-1.3-.6-2.7-.8-4.2-.8-3.5,0-6.4,1.5-8.7,4.5v-3.9h-6.5v26.3h7v-11.9c0-2.9.2-5,.5-6.1.4-1.1,1-2,2-2.6s2-1,3.2-1,1.8.2,2.4.7,1.2,1.1,1.4,1.9c.3.8.4,2.7.4,5.5v13.4h7v-16.4c0-2-.1-3.6-.4-4.7s-.7-2.1-1.4-2.9h0Z"/>
            <rect class="cls-4" x="1491" y="236.4" width="7" height="26.3"/>
            <path class="cls-4" d="M1272.4,254.1v-8.1c0-3-.2-5.1-.9-6.2-.6-1.1-1.7-2.1-3.2-2.8-1.5-.7-3.8-1.1-6.9-1.1s-6,.6-7.7,1.8c-1.7,1.2-3,3.1-3.7,5.6l6.3,1.1c.4-1.2,1-2.1,1.7-2.6.7-.5,1.7-.7,2.9-.7,1.8,0,3.1.3,3.7.9.7.6,1,1.5,1,2.9v.7c-1.3.5-3.5,1.1-6.8,1.7-2.4.5-4.3,1-5.5,1.6s-2.3,1.5-3,2.7-1.1,2.5-1.1,4c0,2.2.8,4.1,2.3,5.6,1.6,1.5,3.7,2.2,6.4,2.2s3-.3,4.3-.9c1.3-.6,2.6-1.5,3.8-2.6,0,.1.1.4.2.8.3.9.5,1.6.7,2.1h6.9c-.6-1.3-1-2.4-1.2-3.5s-.3-2.8-.3-5.1h0ZM1265.7,251.5c0,1.7,0,2.8-.3,3.4-.3.9-.8,1.7-1.7,2.3-1.1.8-2.3,1.2-3.6,1.2s-2.1-.4-2.8-1.1c-.7-.7-1.1-1.6-1.1-2.5s.4-1.8,1.4-2.4c.6-.4,1.9-.8,3.8-1.2s3.3-.8,4.2-1.1v1.4h0Z"/>
            <path class="cls-4" d="M1234.8,255.2c-1.4,1.2-3.1,1.9-5,1.9s-4.8-1-6.4-2.9c-1.7-1.9-2.5-5.2-2.5-9.8s.8-7.5,2.5-9.4c1.7-1.9,3.9-2.9,6.6-2.9s3.6.5,5,1.6c1.4,1.1,2.3,2.6,2.7,4.5l7.3-1.7c-.8-2.9-2.1-5.1-3.7-6.7-2.8-2.6-6.4-3.9-10.8-3.9s-9.2,1.7-12.3,5-4.7,8-4.7,14.1,1.6,10.2,4.7,13.5c3.1,3.3,7.1,5,11.9,5s7.1-1,9.7-2.9c2.5-1.9,4.3-4.9,5.4-8.8l-7.1-2.3c-.6,2.7-1.6,4.6-3,5.9h0Z"/>
            <path class="cls-4" d="M1313.8,237c-1.3-.8-3-1.2-4.9-1.2s-2.9.4-4.3,1c-1.3.7-2.6,1.7-3.7,3.1-.8-1.4-1.8-2.4-3.1-3.1-1.2-.7-2.7-1-4.4-1-3.2,0-5.9,1.4-8.2,4.2v-3.6h-6.4v26.3h7v-12.8c0-2.5.2-4.3.6-5.4.4-1.1,1-1.9,1.8-2.5.9-.6,1.8-.9,2.9-.9s1.6.2,2.1.5.9.9,1.2,1.7.4,2.4.4,5v14.4h7v-12.6c0-2.5.2-4.3.6-5.4.4-1.1,1-2,1.9-2.6.9-.6,1.8-.9,2.8-.9s2.3.5,3,1.5c.5.8.7,2.4.7,5.1v15h7v-16.8c0-2.5-.2-4.3-.7-5.4-.7-1.5-1.7-2.7-3-3.5h0Z"/>
            <path class="cls-4" d="M1393.8,254.1v-8.1c0-3-.2-5.1-.9-6.2-.6-1.1-1.7-2.1-3.2-2.8-1.5-.7-3.8-1.1-6.9-1.1s-6,.6-7.7,1.8c-1.7,1.2-3,3.1-3.7,5.6l6.3,1.1c.4-1.2,1-2.1,1.7-2.6.7-.5,1.7-.7,2.9-.7,1.8,0,3.1.3,3.7.9.7.6,1,1.5,1,2.9v.7c-1.3.5-3.5,1.1-6.8,1.7-2.4.5-4.3,1-5.5,1.6s-2.3,1.5-3,2.7-1.1,2.5-1.1,4c0,2.2.8,4.1,2.3,5.6,1.6,1.5,3.7,2.2,6.4,2.2s3-.3,4.3-.9c1.3-.6,2.6-1.5,3.8-2.6,0,.1.1.4.2.8.3.9.5,1.6.7,2.1h6.9c-.6-1.3-1-2.4-1.2-3.5s-.3-2.8-.3-5.1h0ZM1387,251.5c0,1.7,0,2.8-.3,3.4-.3.9-.8,1.7-1.7,2.3-1.1.8-2.3,1.2-3.6,1.2s-2.1-.4-2.8-1.1-1.1-1.6-1.1-2.5.4-1.8,1.4-2.4c.6-.4,1.9-.8,3.8-1.2s3.3-.8,4.2-1.1v1.4h0Z"/>
            <path class="cls-4" d="M1361.9,236.6c-.9.6-1.9,1.7-3,3.5v-3.7h-6.5v26.3h7v-8.1c0-4.5.2-7.4.6-8.8s.9-2.4,1.6-2.9,1.5-.8,2.5-.8,2.1.4,3.3,1.1l2.2-6.1c-1.5-.9-3-1.3-4.6-1.3s-2.1.3-3,.8h0Z"/>
            <path class="cls-4" d="M1343.8,239.7c-2.3-2.6-5.4-3.9-9.3-3.9s-6.4,1.2-8.7,3.7-3.4,5.9-3.4,10.2.9,6.7,2.6,9.1c2.2,3,5.6,4.5,10.2,4.5s5.3-.7,7.2-2c1.9-1.3,3.3-3.3,4.2-5.8l-6.9-1.2c-.4,1.3-.9,2.3-1.7,2.9-.7.6-1.7.9-2.8.9-1.6,0-2.9-.6-4-1.7-1.1-1.1-1.6-2.8-1.7-4.8h17.4c0-5.3-1-9.3-3.2-11.9h0ZM1329.7,247.3c0-1.9.5-3.4,1.5-4.5s2.2-1.7,3.8-1.7,2.6.5,3.6,1.6,1.5,2.6,1.6,4.6h-10.4Z"/>
            <rect class="cls-4" x="1491" y="226.4" width="7" height="6.4"/>
            <path class="cls-4" d="M1638.2,256.5c-.8.8-1.9,1.1-3.2,1.1s-3.2-.6-4.2-1.9c-1.1-1.3-1.6-3.5-1.6-6.6s.5-4.8,1.6-6,2.4-1.8,4.2-1.8,2.4.4,3.2,1c.8.7,1.3,1.7,1.6,3.1l6.9-1.2c-.8-2.8-2.2-4.9-4.1-6.3s-4.4-2.1-7.7-2.1-7,1.2-9.3,3.6c-2.3,2.4-3.4,5.8-3.4,10.1s1.1,7.7,3.4,10.1,5.4,3.6,9.2,3.6,6.1-.8,8.1-2.4c2-1.6,3.4-4,4.1-7.1l-6.8-1.2c-.3,1.8-.9,3.1-1.8,3.9h0Z"/>
            <polygon class="cls-4" points="1559.5 236.4 1551 236.4 1542.8 245.7 1542.8 226.4 1535.8 226.4 1535.8 262.7 1542.8 262.7 1542.8 254.3 1546.1 250.9 1552.7 262.7 1560.2 262.7 1550.5 246 1559.5 236.4"/>
            <path class="cls-4" d="M1597.7,239.7c-2.3-2.6-5.4-3.9-9.3-3.9s-6.4,1.2-8.7,3.7-3.4,5.9-3.4,10.2.9,6.7,2.6,9.1c2.2,3,5.6,4.5,10.2,4.5s5.3-.7,7.2-2c1.9-1.3,3.3-3.3,4.2-5.8l-6.9-1.2c-.4,1.3-.9,2.3-1.7,2.9-.7.6-1.7.9-2.8.9-1.6,0-2.9-.6-4-1.7-1.1-1.1-1.6-2.8-1.7-4.8h17.4c0-5.3-1-9.3-3.2-11.9h0ZM1583.7,247.3c0-1.9.5-3.4,1.5-4.5s2.2-1.7,3.8-1.7,2.6.5,3.6,1.6,1.5,2.6,1.6,4.6h-10.4Z"/>
            <rect class="cls-4" x="1127" y="226.4" width="7" height="6.4"/>
            <rect class="cls-4" x="1713.8" y="255.8" width="7" height="7"/>
            <rect class="cls-4" x="1605.9" y="246.1" width="13.7" height="7"/>
            <path class="cls-4" d="M1118.2,239c-.7-.9-1.6-1.7-2.9-2.3-1.3-.6-2.7-.9-4.3-.9-3.1,0-5.8,1.3-8.1,3.9v-13.4h-7v36.3h7v-13.2c0-2.2.2-3.9.6-5s1.1-2,2-2.5,1.9-.8,3.1-.8,1.8.2,2.5.7,1.1,1,1.4,1.8.4,2.5.4,5.2v13.9h7v-15.4c0-2.4-.1-4.1-.4-5.2s-.7-2.1-1.3-3.1h0Z"/>
            <rect class="cls-4" x="1127" y="236.4" width="7" height="26.3"/>
            <path class="cls-4" d="M1705,238.8c-.7-.9-1.6-1.6-2.9-2.1-1.3-.6-2.7-.8-4.2-.8-3.5,0-6.4,1.5-8.7,4.5v-3.9h-6.5v26.3h7v-11.9c0-2.9.2-5,.5-6.1.4-1.1,1-2,2-2.6s2-1,3.2-1,1.8.2,2.4.7,1.2,1.1,1.4,1.9c.3.8.4,2.7.4,5.5v13.4h7v-16.4c0-2-.1-3.6-.4-4.7s-.7-2.1-1.4-2.9h0Z"/>
            <path class="cls-4" d="M1663.8,235.8c-2.6,0-4.9.6-7,1.7s-3.7,2.8-4.8,5c-1.1,2.2-1.7,4.4-1.7,6.7s.6,5.6,1.7,7.7c1.1,2.1,2.8,3.7,5,4.8s4.5,1.6,6.9,1.6c3.9,0,7.1-1.3,9.7-3.9s3.8-5.9,3.8-9.9-1.3-7.2-3.8-9.8c-2.6-2.6-5.8-3.9-9.8-3.9h0ZM1668.3,255.6c-1.2,1.4-2.8,2.1-4.6,2.1s-3.3-.7-4.6-2.1-1.9-3.4-1.9-6,.6-4.6,1.9-6,2.8-2.1,4.6-2.1,3.3.7,4.6,2.1,1.8,3.4,1.8,5.9-.6,4.7-1.8,6.1h0Z"/>
            <path class="cls-4" d="M287.5,59.7c0-2.5-1.5-4.3-3.8-5.2,1.8-.9,2.8-2.5,2.8-4.5,0-3.2-2.7-5.5-8.2-5.5h-10.7v20.9h11.3c5.6,0,8.6-2.1,8.6-5.7h0ZM273.5,48.9h4c2,0,3,.7,3,2s-1,2-3,2h-4v-4ZM273.5,61.2v-4.2h5c2,0,3.1.7,3.1,2.1s-1.1,2.1-3.1,2.1h-5Z"/>
            <path class="cls-4" d="M179.9,65.9c3.8,0,6.9-1.4,9-3.9l-3.8-3.4c-1.3,1.6-2.9,2.4-4.9,2.4-3.4,0-5.8-2.4-5.8-6s2.4-6,5.8-6,3.6.9,4.9,2.4l3.8-3.4c-2-2.5-5.1-3.9-9-3.9-6.6,0-11.5,4.5-11.5,10.8s4.9,10.8,11.5,10.8h0Z"/>
            <polygon class="cls-4" points="212.8 60.9 201.9 60.9 201.9 57.1 211.1 57.1 211.1 52.7 201.9 52.7 201.9 49.2 212.4 49.2 212.4 44.6 196 44.6 196 65.5 212.8 65.5 212.8 60.9"/>
            <polygon class="cls-4" points="236.4 60.8 226.4 60.8 226.4 44.6 220.5 44.6 220.5 65.5 236.4 65.5 236.4 60.8"/>
            <polygon class="cls-4" points="259.9 60.9 249 60.9 249 57.1 258.3 57.1 258.3 52.7 249 52.7 249 49.2 259.5 49.2 259.5 44.6 243.2 44.6 243.2 65.5 259.9 65.5 259.9 60.9"/>
            <path class="cls-4" d="M301,59.9h3.2l3.8,5.5h6.3l-4.5-6.6c2.6-1.2,4.1-3.5,4.1-6.6,0-4.8-3.6-7.7-9.3-7.7h-9.5v20.9h5.9v-5.5h0ZM301,49.2h3.3c2.4,0,3.7,1.1,3.7,3.1s-1.2,3-3.7,3h-3.3v-6.1Z"/>
            <polygon class="cls-4" points="392.3 54.3 401.5 65.5 406.3 65.5 406.3 44.6 400.5 44.6 400.5 55.7 391.3 44.6 386.5 44.6 386.5 65.5 392.3 65.5 392.3 54.3"/>
            <path class="cls-4" d="M425.8,49.1c2,0,3.6.7,5.1,2.3l3.8-3.4c-2.1-2.5-5.2-3.8-9.1-3.8-6.8,0-11.6,4.5-11.6,10.8s4.9,10.8,11.5,10.8,6.4-.9,8.8-2.7v-8.6h-5.2v5.7c-1,.5-2.1.7-3.2.7-3.5,0-5.9-2.4-5.9-6s2.4-6,6-6h0Z"/>
            <polygon class="cls-4" points="270.5 288.6 279.8 288.6 279.8 284.2 270.5 284.2 270.5 280.7 281 280.7 281 276.2 264.6 276.2 264.6 297 281.4 297 281.4 292.5 270.5 292.5 270.5 288.6"/>
            <polygon class="cls-4" points="250.8 297 250.8 289.5 258.8 276.2 253 276.2 248.1 284.4 243.1 276.2 236.9 276.2 244.9 289.5 244.9 297 250.8 297"/>
            <path class="cls-4" d="M295.9,276.2l-9.2,20.9h6l1.6-4h8.8l1.6,4h6.1l-9.2-20.9h-5.8ZM296,288.6l2.7-6.7,2.7,6.7h-5.4,0Z"/>
            <polygon class="cls-4" points="445.4 62 472.2 62 472.2 86 489.4 86 489.4 44.8 445.4 44.8 445.4 62"/>
            <polygon class="cls-4" points="155.6 279.7 126.9 279.7 126.9 253.3 109.8 253.3 109.8 296.8 155.6 296.8 155.6 279.7"/>
            <path class="cls-4" d="M326.8,61.4h8.8l1.6,4h6.1l-8.9-20.2-.3-.7h-5.8l-5.7,12.9-3.5,8h6l1.6-4h0ZM331.2,50.4l2.7,6.7h-5.4l2.7-6.7h0Z"/>
            <polygon class="cls-4" points="377.8 62.3 377.8 44.6 371.9 44.6 371.9 58 371.9 65.5 377.8 65.5 377.8 62.3"/>
            <polygon class="cls-4" points="352.9 65.5 358.8 65.5 358.8 49.3 359.9 49.3 365.2 49.3 365.2 44.6 353.5 44.6 346.5 44.6 346.5 49.3 352.9 49.3 352.9 65.5"/>
            <path class="cls-4" d="M335.9,283.9c0-4.8-3.6-7.7-9.3-7.7h-9.5v20.9h5.9v-5.5h3.2l3.8,5.5h6.3l-2.3-3.3-2.2-3.3c2.6-1.2,4.1-3.5,4.1-6.6h0ZM326.2,286.9h-3.3v-6.1h3.3c2.4,0,3.7,1.1,3.7,3.1s-1.2,3-3.7,3h0Z"/>
            <path class="cls-4" d="M351,292.9c-2.4,0-5-.8-6.9-2.1l-1.9,4.4c2,1.4,5.4,2.3,8.8,2.3,6.2,0,9.2-3.1,9.2-6.7,0-7.7-11.8-5.3-11.8-8.5s.9-1.9,3.4-1.9,3.8.5,5.8,1.6l1.8-4.4c-2.1-1.2-4.9-1.8-7.6-1.8-6.2,0-9.2,3-9.2,6.8,0,7.8,11.9,5.3,11.9,8.6s-1,1.7-3.4,1.7h0Z"/>
            <path class="cls-4" d="M416.1,174.2c0-49.7-40.3-90-90-90s-18.6,1.5-27.2,4.2c-1.9.6-3.7,1.3-5.5,2-.5-.3-.9-.5-1.4-.8-9.4-4.8-21.1-7.3-34.7-7.3-27.5,0-49.9,9.3-63.8,25.7l13.1,11.3c11.8-13.6,28.1-20.1,49.2-20.1s12.5.8,17.6,2.2c3.3.9,6.3,2.2,9,3.6,2.8,1.5,5.2,3.3,7.2,5.4,5.5,5.7,8.4,13.3,8.4,22.5s0,2.2-.1,3.3c-.2,2.4-.5,4.9-1.1,7.4-1.6,6.4-5.1,13.4-12.1,21.9-1.6,2-3.5,4.1-5.5,6.3-1.6,1.8-3.4,3.6-5.4,5.5l-11.9,11.6-1.9,1.9-4.3,4.2-6.7,6.6-6.3,6.2-43.9,43v13.1h122.1c1.8.1,3.5.2,5.3.2,4.2,0,8.3-.3,12.4-.9,43.8-6,77.6-43.6,77.6-89.1h0ZM315.9,142.9c3.2-1.1,6.7-1.7,10.3-1.7s.7,0,1.1,0c8.7.3,16.5,3.9,22.2,9.6,6,6,9.7,14.2,9.7,23.3s-3.7,17.4-9.7,23.3-14.2,9.7-23.3,9.7-12.9-2-18-5.4c-1.9-1.2-3.7-2.7-5.3-4.3-4.5-4.5-7.7-10.4-9-16.9,13.9-14.9,19.9-26.5,22.1-37.8h0ZM260,247.5h-33.9l13.2-13,11.5-11.3c6.2,9.5,14.1,17.7,23.3,24.3h-14ZM326.1,256.1c-.3,0-.6,0-1,0-12.8-.1-24.8-3.2-35.5-8.5-7.3-3.6-14-8.3-19.8-13.9-5.1-4.8-9.5-10.2-13.2-16.2l6.1-6,12.2-12,1.7-1.7,2.6-2.5,6.9-6.8c3.3,9.2,9.6,16.9,17.9,22,6.4,3.9,14,6.2,22.1,6.2,23.4,0,42.5-19,42.5-42.4s-19-42.4-42.5-42.4-1.6,0-2.4.1c-2.3.1-4.6.4-6.9.9,0-.6,0-1.2,0-1.9,0-2-.1-3.9-.3-5.8-.9-8.6-3.8-16-8.5-22.2-1.9-2.5-4.1-4.8-6.5-6.9,1.5-.5,3.1-.9,4.6-1.3,6.4-1.6,13-2.4,19.9-2.4,45.2,0,81.9,36.7,81.9,81.9s-36.7,81.9-81.9,81.9h0Z"/>
            <path class="cls-4" d="M325.2,247.7v-.2h-3.9c1.3,0,2.6.1,3.9.2Z"/>
            <path class="cls-4" d="M545.2,328.1c2,0,3.6.7,5.1,2.3l3.8-3.4c-2.1-2.5-5.2-3.8-9.1-3.8-6.8,0-11.6,4.5-11.6,10.9s4.9,10.9,11.5,10.9,6.3-.9,8.8-2.6v-8.6h-5.2v5.7c-1,.5-2.1.7-3.2.7-3.5,0-5.9-2.4-5.9-6s2.4-6,6-6h0Z"/>
            <polygon class="cls-4" points="446.1 336.1 455.4 336.1 455.4 331.7 446.1 331.7 446.1 328.2 456.6 328.2 456.6 323.7 440.3 323.7 440.3 344.5 457 344.5 457 340 446.1 340 446.1 336.1"/>
            <path class="cls-4" d="M483.6,331.4c0-4.8-3.6-7.7-9.3-7.7h-9.5v20.9h5.9v-5.5h3.2l3.8,5.5h6.3l-4.5-6.6c2.6-1.2,4.1-3.5,4.1-6.6h0ZM474,334.4h-3.3v-6.1h3.3c2.4,0,3.7,1.1,3.7,3.1s-1.2,3-3.7,3h0Z"/>
            <polygon class="cls-4" points="520 334.8 510.8 323.7 505.9 323.7 505.9 344.5 511.7 344.5 511.7 333.4 520.9 344.5 525.8 344.5 525.8 323.7 520 323.7 520 334.8"/>
            <rect class="cls-4" x="491.3" y="323.7" width="5.9" height="20.9"/>
            <polygon class="cls-4" points="401.3 334.8 392.1 323.7 387.3 323.7 387.3 344.5 393 344.5 393 333.4 402.3 344.5 407.1 344.5 407.1 323.7 401.3 323.7 401.3 334.8"/>
            <polygon class="cls-4" points="421.6 336.1 430.9 336.1 430.9 331.7 421.6 331.7 421.6 328.2 432.1 328.2 432.1 323.7 415.8 323.7 415.8 344.5 432.5 344.5 432.5 340 421.6 340 421.6 336.1"/>
            <path class="cls-4" d="M146,323.7l-9.2,20.9h6l1.6-4h8.8l1.6,4h6.1l-9.2-20.9h-5.8,0ZM146.2,336.1l2.7-6.7,2.7,6.7h-5.4,0Z"/>
            <polygon class="cls-4" points="330.8 334.8 321.6 323.7 316.8 323.7 316.8 344.5 322.5 344.5 322.5 333.4 331.8 344.5 336.6 344.5 336.6 323.7 330.8 323.7 330.8 334.8"/>
            <polygon class="cls-4" points="298.1 336.1 307.4 336.1 307.4 331.7 298.1 331.7 298.1 328.2 308.6 328.2 308.6 323.7 292.2 323.7 292.2 344.5 309 344.5 309 340 298.1 340 298.1 336.1"/>
            <path class="cls-4" d="M356.1,328.1c2,0,3.6.7,5.1,2.3l3.8-3.4c-2.1-2.5-5.2-3.8-9.1-3.8-6.8,0-11.6,4.5-11.6,10.9s4.9,10.9,11.5,10.9,6.4-.9,8.8-2.6v-8.6h-5.2v5.7c-1,.5-2.1.7-3.2.7-3.5,0-5.9-2.4-5.9-6s2.4-6,6-6h0Z"/>
            <path class="cls-4" d="M57.3,323.2c-6.7,0-11.6,4.6-11.6,10.9s4.9,10.9,11.6,10.9,11.6-4.6,11.6-10.9-4.9-10.9-11.6-10.9ZM57.3,340.1c-3.2,0-5.6-2.4-5.6-6s2.5-6,5.6-6,5.6,2.4,5.6,6-2.5,6-5.6,6Z"/>
            <path class="cls-4" d="M257.9,323.7l-9.2,20.9h6l1.6-4h8.8l1.6,4h6.1l-9.2-20.9h-5.8ZM258.1,336.1l2.7-6.7,2.7,6.7h-5.4,0Z"/>
            <rect class="cls-4" x="372.7" y="323.7" width="5.9" height="20.9"/>
            <path class="cls-4" d="M243.5,331.4c0-4.8-3.6-7.7-9.3-7.7h-9.5v20.9h5.9v-5.5h3.2l3.8,5.5h6.3l-4.5-6.6c2.6-1.2,4.1-3.5,4.1-6.6h0ZM233.8,334.4h-3.3v-6.1h3.3c2.4,0,3.7,1.1,3.7,3.1s-1.2,3-3.7,3h0Z"/>
            <path class="cls-4" d="M123.9,328.1c2,0,3.6.9,4.9,2.4l3.8-3.4c-2-2.5-5.1-3.9-9-3.9-6.6,0-11.5,4.5-11.5,10.9s4.9,10.9,11.5,10.9,6.9-1.4,9-3.9l-3.8-3.4c-1.3,1.6-2.9,2.4-4.9,2.4-3.4,0-5.8-2.4-5.8-6s2.4-6,5.8-6h0Z"/>
            <polygon class="cls-4" points="76.4 344.5 82.3 344.5 82.3 337.4 91.6 337.4 91.6 332.8 82.3 332.8 82.3 328.2 92.8 328.2 92.8 323.7 76.4 323.7 76.4 344.5"/>
            <polygon class="cls-4" points="206 336.1 215.3 336.1 215.3 331.7 206 331.7 206 328.2 216.5 328.2 216.5 323.7 200.1 323.7 200.1 344.5 216.9 344.5 216.9 340 206 340 206 336.1"/>
            <polygon class="cls-4" points="186.6 323.7 179.4 335.7 172.1 323.7 167.2 323.7 167.2 344.5 172.7 344.5 172.7 333.8 178 342.5 180.6 342.5 186 333.5 186.1 344.5 191.5 344.5 191.4 323.7 186.6 323.7"/>
          </g>
        </g>
        <path class="cls-1" d="M1781.9,94.1c0,3.4-.8,6.6-2.6,9.5-1.7,2.9-4,5.2-6.9,6.9-2.9,1.7-6.1,2.5-9.5,2.5s-6.5-.8-9.5-2.5-5.2-4-6.9-6.9-2.6-6.1-2.6-9.5.8-6.6,2.6-9.5c1.7-2.9,4-5.3,6.9-6.9,2.9-1.7,6.1-2.5,9.5-2.5s6.6.8,9.5,2.5c2.9,1.7,5.2,4,6.9,6.9,1.7,2.9,2.6,6.1,2.6,9.5ZM1778.2,94.1c0-4.2-1.5-7.8-4.5-10.8-3-3-6.6-4.5-10.8-4.5s-7.8,1.5-10.8,4.5-4.5,6.6-4.5,10.8,1.5,7.8,4.5,10.8c3,3,6.6,4.5,10.8,4.5s7.8-1.5,10.8-4.5,4.5-6.6,4.5-10.8ZM1754.3,83.9h9.1c2.6,0,4.4.5,5.6,1.6,1.2,1,1.7,2.4,1.7,4.2s-.4,2.5-1.3,3.5c-.9,1-2.3,1.7-4.2,2.2.8.3,1.3.6,1.7.9.5.5,1.1,1.2,1.6,2.1,0,0,1.1,2,3.3,5.9h-6c-1.9-3.9-3.2-6.2-3.9-6.9-.7-.8-1.3-1.1-2-1.1s-.4,0-.6,0v8h-5.1v-20.3h0ZM1759.3,92.5h2.2c1.5,0,2.5-.2,3.1-.7.6-.5.9-1.1.9-1.8s-.3-1.4-.9-1.8-1.6-.7-2.9-.7h-2.4v5.1h0Z"/>
      </g>
    </g>
  </g>
</svg>