<?xml version="1.0" encoding="UTF-8"?>
<svg id="Layer_1" xmlns="http://www.w3.org/2000/svg" viewBox="0 0 1820 386">
  <defs>
    <style>
      .cls-1 {
        fill: #066634;
      }

      .cls-2 {
        fill: #36519f;
      }

      .cls-3 {
        fill: #4e4f4f;
      }

      .cls-4 {
        fill: #010101;
      }
    </style>
  </defs>
  <g>
    <rect class="cls-3" x="592.24" y="40.76" width="5.05" height="304.49"/>
    <g>
      <polygon class="cls-1" points="1003.03 197.86 889.17 197.86 887.27 197.86 858.61 197.86 858.61 344.12 889.17 344.12 889.17 227.7 1003.03 227.7 1003.03 197.86"/>
      <polygon class="cls-1" points="818.46 158.82 704.61 158.82 704.61 188.66 818.46 188.66 820.37 188.66 849.03 188.66 849.03 42.4 818.46 42.4 818.46 158.82"/>
      <circle class="cls-1" cx="794.82" cy="135.82" r="20.94" transform="translate(136.76 601.8) rotate(-45)"/>
      <circle class="cls-1" cx="766.21" cy="108.4" r="17.65" transform="translate(372.84 774.81) rotate(-67.5)"/>
      <path class="cls-1" d="M728.62,84.24c0,7.6,6.16,13.75,13.75,13.75s13.75-6.16,13.75-13.75-6.16-13.75-13.75-13.75-13.75,6.16-13.75,13.75Z"/>
      <circle class="cls-1" cx="723.62" cy="65.47" r="9.86"/>
      <path class="cls-1" d="M714.59,51.32c0-3.75-3.04-6.78-6.78-6.78s-6.78,3.04-6.78,6.78,3.04,6.78,6.78,6.78,6.78-3.04,6.78-6.78Z"/>
      <circle class="cls-1" cx="912.87" cy="251.36" r="20.94" transform="translate(-33.33 216.46) rotate(-13.28)"/>
      <circle class="cls-1" cx="941.48" cy="278.78" r="17.65" transform="translate(-38.87 223.77) rotate(-13.28)"/>
      <path class="cls-1" d="M979.07,302.94c0-7.6-6.16-13.75-13.75-13.75s-13.75,6.16-13.75,13.75,6.16,13.75,13.75,13.75,13.75-6.16,13.75-13.75Z"/>
      <path class="cls-1" d="M984.07,311.86c-5.44,0-9.86,4.41-9.86,9.86s4.41,9.86,9.86,9.86,9.86-4.41,9.86-9.86-4.41-9.86-9.86-9.86Z"/>
      <circle class="cls-1" cx="999.88" cy="335.87" r="6.78"/>
      <path class="cls-1" d="M1385.36,124.99c-3.4-1.79-8.64-3.52-15.73-5.2-7.09-1.67-11.56-3.28-13.4-4.83-1.45-1.21-2.17-2.68-2.17-4.38,0-1.87.77-3.37,2.32-4.48,2.39-1.74,5.71-2.61,9.95-2.61s7.18.81,9.24,2.44c2.05,1.63,3.39,4.29,4.01,8l14.58-.64c-.23-6.63-2.64-11.93-7.22-15.91-4.58-3.97-11.4-5.96-20.46-5.96-5.55,0-10.29.84-14.21,2.51-3.92,1.67-6.93,4.11-9.01,7.31-2.09,3.2-3.13,6.64-3.13,10.32,0,5.71,2.21,10.56,6.65,14.53,3.15,2.82,8.64,5.2,16.45,7.14,6.08,1.51,9.97,2.56,11.67,3.15,2.5.89,4.25,1.93,5.25,3.13,1,1.2,1.5,2.65,1.5,4.36,0,2.66-1.19,4.98-3.57,6.97-2.38,1.99-5.92,2.98-10.61,2.98-4.43,0-7.95-1.12-10.56-3.35-2.61-2.23-4.34-5.73-5.2-10.49l-14.18,1.38c.95,8.08,3.87,14.23,8.77,18.45,4.89,4.22,11.9,6.33,21.03,6.33,6.27,0,11.51-.88,15.71-2.63,4.2-1.76,7.45-4.44,9.75-8.05,2.3-3.61,3.45-7.49,3.45-11.62,0-4.56-.96-8.4-2.88-11.5-1.92-3.1-4.58-5.55-7.98-7.34Z"/>
      <path class="cls-1" d="M1538.95,154.56c-.92,0-1.7-.23-2.34-.69-.64-.46-1.05-1.04-1.23-1.75-.18-.71-.27-3.19-.27-7.46v-21.08h9.46v-11.03h-9.46v-18.47l-13.89,8.08v10.39h-6.35v11.03h6.35v22.8c0,4.89.15,8.14.44,9.75.36,2.27,1.01,4.06,1.95,5.39.93,1.33,2.4,2.41,4.41,3.25s4.25,1.26,6.75,1.26c4.07,0,7.72-.69,10.93-2.07l-1.18-10.74c-2.43.89-4.28,1.33-5.56,1.33Z"/>
      <path class="cls-1" d="M1429.07,149.69l-12.51-37.13h-14.73l19.89,52.45c-.82,2.92-2,5.33-3.54,7.21-1.54,1.89-3.92,2.83-7.14,2.83-1.74,0-3.69-.21-5.86-.64l1.23,10.84c2.56.56,5.17.84,7.83.84s4.98-.28,7.07-.84c2.09-.56,3.84-1.34,5.27-2.34s2.69-2.31,3.79-3.92c1.1-1.61,2.26-3.94,3.47-6.99l3.3-9.11,18.47-50.33h-14.33l-12.21,37.13Z"/>
      <path class="cls-1" d="M1592.53,119.08c-4.5-5.14-10.64-7.71-18.42-7.71-6.93,0-12.66,2.45-17.19,7.36-4.53,4.91-6.8,11.7-6.8,20.37,0,7.26,1.72,13.26,5.17,18.02,4.37,5.94,11.1,8.91,20.19,8.91,5.74,0,10.53-1.32,14.36-3.96,3.83-2.64,6.63-6.49,8.4-11.55l-13.79-2.31c-.75,2.63-1.87,4.53-3.35,5.71-1.48,1.18-3.3,1.77-5.47,1.77-3.19,0-5.85-1.14-7.98-3.42-2.13-2.28-3.25-5.47-3.35-9.58h34.67c.2-10.61-1.95-18.48-6.45-23.62ZM1564.55,134.22c-.03-3.77.94-6.76,2.91-8.96,1.97-2.2,4.46-3.3,7.49-3.3,2.82,0,5.22,1.04,7.19,3.13,1.97,2.09,3,5.13,3.1,9.14h-20.68Z"/>
      <rect class="cls-1" x="1098.59" y="131.76" width="27.19" height="13.84"/>
      <path class="cls-1" d="M1162.92,152.52c-1.67,1.49-3.83,2.24-6.45,2.24-3.52,0-6.31-1.28-8.4-3.84-2.09-2.56-3.13-6.94-3.13-13.15,0-5.58,1.03-9.56,3.08-11.94,2.05-2.38,4.8-3.57,8.25-3.57,2.6,0,4.7.69,6.33,2.07s2.67,3.43,3.13,6.16l13.64-2.46c-1.64-5.61-4.34-9.79-8.1-12.53-3.76-2.74-8.82-4.11-15.19-4.11-7.78,0-13.95,2.4-18.52,7.21-4.57,4.81-6.85,11.53-6.85,20.17s2.27,15.22,6.82,20.04c4.55,4.83,10.65,7.24,18.29,7.24,6.73,0,12.1-1.59,16.11-4.78,4-3.18,6.71-7.9,8.12-14.13l-13.59-2.31c-.69,3.64-1.87,6.21-3.54,7.71Z"/>
      <path class="cls-1" d="M1739.59,138.21c-2.92-2.43-8.07-4.48-15.44-6.16-7.37-1.67-11.68-2.97-12.93-3.89-.92-.69-1.38-1.53-1.38-2.51,0-1.15.52-2.09,1.57-2.81,1.58-1.02,4.19-1.53,7.83-1.53,2.89,0,5.11.54,6.68,1.63,1.56,1.08,2.62,2.64,3.18,4.68l13.05-2.41c-1.32-4.56-3.71-8.01-7.19-10.34-3.48-2.33-8.8-3.5-15.96-3.5-7.52,0-13.07,1.54-16.64,4.63-3.58,3.09-5.37,6.89-5.37,11.42,0,5.02,2.07,8.95,6.21,11.77,2.99,2.04,10.06,4.29,21.23,6.75,2.39.56,3.94,1.17,4.63,1.82.66.69.98,1.56.98,2.61,0,1.54-.61,2.78-1.82,3.69-1.81,1.32-4.5,1.97-8.08,1.97-3.25,0-5.78-.7-7.58-2.09-1.81-1.4-3-3.44-3.6-6.13l-13.89,2.12c1.28,4.96,4,8.88,8.15,11.77,4.15,2.89,9.79,4.33,16.92,4.33,7.85,0,13.77-1.72,17.78-5.17,4.01-3.45,6.01-7.57,6.01-12.36,0-4.4-1.45-7.83-4.33-10.29Z"/>
      <path class="cls-1" d="M1295.57,117.23c-1.3-1.71-3.21-3.11-5.74-4.21-2.53-1.1-5.32-1.65-8.37-1.65-6.93,0-12.67,2.95-17.24,8.86v-7.68h-12.86v52.3h13.84v-23.69c0-5.84.35-9.85,1.06-12.02.71-2.17,2.01-3.91,3.92-5.22,1.9-1.31,4.05-1.97,6.45-1.97,1.87,0,3.47.46,4.8,1.38,1.33.92,2.29,2.21,2.88,3.86.59,1.66.89,5.31.89,10.96v26.69h13.84v-32.5c0-4.04-.25-7.14-.76-9.31-.51-2.17-1.41-4.1-2.71-5.81Z"/>
      <path class="cls-1" d="M1488.68,132.06c-7.37-1.67-11.68-2.97-12.93-3.89-.92-.69-1.38-1.53-1.38-2.51,0-1.15.52-2.09,1.57-2.81,1.58-1.02,4.19-1.53,7.83-1.53,2.89,0,5.11.54,6.68,1.63,1.56,1.08,2.62,2.64,3.18,4.68l13.05-2.41c-1.32-4.56-3.71-8.01-7.19-10.34-3.48-2.33-8.8-3.5-15.96-3.5-7.52,0-13.07,1.54-16.64,4.63-3.58,3.09-5.37,6.89-5.37,11.42,0,5.02,2.07,8.95,6.21,11.77,2.99,2.04,10.06,4.29,21.23,6.75,2.39.56,3.94,1.17,4.63,1.82.66.69.98,1.56.98,2.61,0,1.54-.61,2.78-1.82,3.69-1.81,1.32-4.5,1.97-8.08,1.97-3.25,0-5.78-.7-7.58-2.09-1.81-1.4-3-3.44-3.6-6.13l-13.89,2.12c1.28,4.96,4,8.88,8.15,11.77,4.15,2.89,9.79,4.33,16.92,4.33,7.85,0,13.77-1.72,17.78-5.17,4.01-3.45,6.01-7.57,6.01-12.36,0-4.4-1.45-7.83-4.33-10.29-2.92-2.43-8.07-4.48-15.44-6.16Z"/>
      <path class="cls-1" d="M1082.44,119.08c-4.5-5.14-10.64-7.71-18.42-7.71-6.93,0-12.66,2.45-17.19,7.36-4.53,4.91-6.8,11.7-6.8,20.37,0,7.26,1.72,13.26,5.17,18.02,4.37,5.94,11.1,8.91,20.19,8.91,5.74,0,10.53-1.32,14.36-3.96,3.83-2.64,6.63-6.49,8.4-11.55l-13.79-2.31c-.75,2.63-1.87,4.53-3.35,5.71-1.48,1.18-3.3,1.77-5.47,1.77-3.19,0-5.85-1.14-7.98-3.42-2.13-2.28-3.25-5.47-3.35-9.58h34.67c.2-10.61-1.95-18.48-6.45-23.62ZM1054.47,134.22c-.03-3.77.94-6.76,2.91-8.96,1.97-2.2,4.46-3.3,7.49-3.3,2.82,0,5.22,1.04,7.19,3.13,1.97,2.09,3,5.13,3.1,9.14h-20.68Z"/>
      <path class="cls-1" d="M1678.76,113.71c-2.66-1.56-5.91-2.34-9.75-2.34-3.02,0-5.86.69-8.52,2.07-2.66,1.38-5.14,3.46-7.44,6.26-1.57-2.79-3.59-4.88-6.05-6.26-2.46-1.38-5.37-2.07-8.72-2.07-6.3,0-11.74,2.78-16.3,8.32v-7.14h-12.75v52.3h13.84v-25.41c0-5.02.37-8.62,1.11-10.78.74-2.17,1.96-3.83,3.67-4.98,1.71-1.15,3.63-1.72,5.76-1.72,1.77,0,3.18.36,4.21,1.08,1.03.72,1.79,1.82,2.29,3.3s.74,4.76.74,9.85v28.66h13.84v-25.12c0-4.93.38-8.53,1.14-10.81.75-2.28,1.99-4.01,3.69-5.2,1.71-1.18,3.53-1.77,5.47-1.77,2.66,0,4.63.98,5.91,2.95.95,1.51,1.43,4.86,1.43,10.05v29.9h13.84v-33.44c0-4.99-.48-8.6-1.43-10.84-1.31-3.02-3.3-5.31-5.96-6.87Z"/>
      <path class="cls-1" d="M1213.59,111.37c-5.12,0-9.76,1.13-13.91,3.4-4.15,2.27-7.37,5.55-9.63,9.85-2.26,4.3-3.4,8.75-3.4,13.35,0,6.01,1.14,11.11,3.4,15.29,2.26,4.19,5.57,7.36,9.92,9.53,4.35,2.17,8.92,3.25,13.72,3.25,7.75,0,14.18-2.6,19.28-7.81,5.11-5.2,7.66-11.76,7.66-19.68s-2.53-14.34-7.58-19.48c-5.06-5.14-11.54-7.71-19.45-7.71ZM1222.73,150.62c-2.45,2.76-5.48,4.14-9.09,4.14s-6.65-1.38-9.11-4.14c-2.46-2.76-3.69-6.73-3.69-11.92s1.23-9.16,3.69-11.92c2.46-2.76,5.5-4.14,9.11-4.14s6.64,1.38,9.09,4.14c2.45,2.76,3.67,6.7,3.67,11.82s-1.22,9.26-3.67,12.02Z"/>
      <polygon class="cls-1" points="109.82 85.83 126.94 85.83 126.94 61.95 156.01 61.95 156.01 44.84 109.82 44.84 109.82 85.83"/>
      <polygon class="cls-1" points="472.25 279.67 445.92 279.67 445.92 296.79 489.37 296.79 489.37 253.91 472.25 253.91 472.25 279.67"/>
      <path class="cls-1" d="M398.47,160.88c-1.48-8.04-4.33-15.97-8.65-23.45-8.51-14.73-21.34-25.4-35.97-31.35l-.16.15-25.84,14.92,70.62,39.72Z"/>
      <path class="cls-1" d="M300.63,213.87l-25.65-14.43-12.22,12.02c3.96,6.73,8.83,12.58,14.36,17.53,6.36,5.69,13.56,10.19,21.3,13.33l.16-.15,25.84-14.92-23.78-13.38Z"/>
      <path class="cls-1" d="M398.78,164.09l-25.84-14.92.91,81.02c6.22-5.3,11.66-11.73,15.98-19.22,8.5-14.73,11.33-31.18,9.16-46.82l-.21-.06Z"/>
      <path class="cls-1" d="M371.21,202.22l-69.71,41.3c6.24,2.22,12.89,3.57,19.78,4.02h3.89v.17c.32,0,.64.04.97.04,17.01,0,32.67-5.78,45.13-15.48l-.05-.21v-29.84Z"/>
      <polygon class="cls-1" points="279.29 195.2 276.72 197.73 279.34 199.23 279.29 195.2"/>
      <path class="cls-1" d="M320.4,122.88l30.37-17.99c-7.7-2.74-15.99-4.23-24.63-4.23-4.62,0-9.12.46-13.5,1.27-1.53.28-3.04.6-4.54.97,4.68,6.21,7.62,13.66,8.52,22.22l3.79-2.24Z"/>
    </g>
    <g>
      <polygon class="cls-2" points="889.1 42.4 858.53 42.4 858.53 188.66 887.19 188.66 889.1 188.66 1002.95 188.66 1002.95 158.82 889.1 158.82 889.1 42.4"/>
      <polygon class="cls-2" points="818.54 197.86 704.69 197.86 704.69 227.7 818.54 227.7 818.54 344.12 849.11 344.12 849.11 197.86 820.45 197.86 818.54 197.86"/>
      <circle class="cls-2" cx="912.87" cy="135.82" r="20.94" transform="translate(-6.79 213.37) rotate(-13.28)"/>
      <circle class="cls-2" cx="941.48" cy="108.4" r="17.65" transform="translate(.28 219.21) rotate(-13.28)"/>
      <path class="cls-2" d="M965.32,98c7.6,0,13.75-6.16,13.75-13.75s-6.16-13.75-13.75-13.75-13.75,6.16-13.75,13.75,6.16,13.75,13.75,13.75Z"/>
      <path class="cls-2" d="M984.07,75.33c5.44,0,9.86-4.41,9.86-9.86s-4.41-9.86-9.86-9.86-9.86,4.41-9.86,9.86,4.41,9.86,9.86,9.86Z"/>
      <circle class="cls-2" cx="999.88" cy="51.32" r="6.78"/>
      <circle class="cls-2" cx="794.82" cy="251.36" r="20.94" transform="translate(55.06 635.65) rotate(-45)"/>
      <circle class="cls-2" cx="766.21" cy="278.78" r="17.65"/>
      <path class="cls-2" d="M742.37,289.19c-7.6,0-13.75,6.16-13.75,13.75s6.16,13.75,13.75,13.75,13.75-6.16,13.75-13.75-6.16-13.75-13.75-13.75Z"/>
      <circle class="cls-2" cx="723.62" cy="321.72" r="9.86"/>
      <path class="cls-2" d="M707.8,329.09c-3.75,0-6.78,3.04-6.78,6.78s3.04,6.78,6.78,6.78,6.78-3.04,6.78-6.78-3.04-6.78-6.78-6.78Z"/>
      <polygon class="cls-2" points="1195.58 236.4 1187.01 236.4 1178.85 245.67 1178.85 226.38 1171.89 226.38 1171.89 262.72 1178.85 262.72 1178.85 254.3 1182.1 250.9 1188.72 262.72 1196.23 262.72 1186.59 246.02 1195.58 236.4"/>
      <path class="cls-2" d="M1163.32,238.75c-.65-.86-1.62-1.57-2.89-2.12-1.27-.55-2.68-.83-4.21-.83-3.49,0-6.38,1.49-8.68,4.46v-3.87h-6.47v26.33h6.97v-11.92c0-2.94.18-4.96.53-6.05.36-1.09,1.01-1.97,1.97-2.63s2.04-.99,3.25-.99c.94,0,1.75.23,2.42.69.67.46,1.15,1.11,1.45,1.95.3.84.45,2.67.45,5.52v13.44h6.96v-16.36c0-2.03-.13-3.59-.38-4.68-.25-1.09-.71-2.07-1.36-2.92Z"/>
      <path class="cls-2" d="M1482.21,238.97c-.65-.92-1.63-1.69-2.91-2.28-1.29-.59-2.74-.89-4.34-.89-3.12,0-5.81,1.31-8.06,3.94v-13.36h-6.97v36.34h6.97v-13.19c0-2.21.21-3.89.63-5.02.42-1.13,1.09-1.98,2-2.54s1.94-.84,3.1-.84c1.01,0,1.84.22,2.51.66.67.44,1.14,1.03,1.4,1.77.26.74.4,2.49.4,5.25v13.91h6.96v-15.44c0-2.36-.12-4.11-.36-5.23-.24-1.12-.68-2.15-1.34-3.07Z"/>
      <polygon class="cls-2" points="1426.4 232.53 1437.18 232.53 1437.18 262.72 1444.52 262.72 1444.52 232.53 1455.28 232.53 1455.28 226.38 1426.4 226.38 1426.4 232.53"/>
      <rect class="cls-2" x="1400.74" y="255.76" width="6.97" height="6.97"/>
      <polygon class="cls-2" points="1062.44 232.53 1073.22 232.53 1073.22 262.72 1080.56 262.72 1080.56 232.53 1091.32 232.53 1091.32 226.38 1062.44 226.38 1062.44 232.53"/>
      <path class="cls-2" d="M1527.28,238.75c-.65-.86-1.62-1.57-2.89-2.12-1.27-.55-2.68-.83-4.21-.83-3.49,0-6.38,1.49-8.68,4.46v-3.87h-6.47v26.33h6.97v-11.92c0-2.94.18-4.96.53-6.05.36-1.09,1.01-1.97,1.97-2.63s2.04-.99,3.25-.99c.94,0,1.75.23,2.42.69.67.46,1.15,1.11,1.45,1.95.3.84.45,2.67.45,5.52v13.44h6.96v-16.36c0-2.03-.13-3.59-.38-4.68-.25-1.09-.71-2.07-1.36-2.92Z"/>
      <rect class="cls-2" x="1490.97" y="236.4" width="6.97" height="26.33"/>
      <path class="cls-2" d="M1272.43,254.07l.07-8.13c0-3.02-.31-5.1-.93-6.23-.62-1.13-1.69-2.06-3.21-2.8-1.52-.73-3.83-1.1-6.94-1.1-3.42,0-6,.61-7.73,1.83-1.74,1.22-2.96,3.11-3.67,5.65l6.32,1.14c.43-1.22.99-2.08,1.69-2.57.69-.49,1.66-.73,2.9-.73,1.83,0,3.08.28,3.74.86.66.57.99,1.52.99,2.86v.69c-1.26.53-3.51,1.1-6.77,1.71-2.42.46-4.26,1-5.54,1.62-1.28.62-2.28,1.51-2.99,2.68-.71,1.17-1.06,2.49-1.06,3.98,0,2.25.78,4.11,2.34,5.58,1.56,1.47,3.7,2.21,6.41,2.21,1.54,0,2.98-.29,4.34-.87,1.35-.58,2.63-1.45,3.82-2.6.05.13.13.41.25.82.26.91.49,1.6.67,2.06h6.89c-.61-1.26-1.03-2.43-1.25-3.53-.22-1.1-.33-2.81-.33-5.12ZM1265.66,251.47c0,1.67-.09,2.8-.27,3.4-.26.91-.82,1.68-1.66,2.31-1.14.83-2.34,1.24-3.6,1.24-1.12,0-2.05-.36-2.78-1.07-.73-.71-1.09-1.55-1.09-2.53s.45-1.81,1.36-2.45c.6-.4,1.86-.8,3.79-1.21s3.35-.77,4.24-1.07v1.39Z"/>
      <path class="cls-2" d="M1234.75,255.21c-1.4,1.24-3.08,1.86-5.03,1.86-2.64,0-4.79-.97-6.45-2.92-1.65-1.95-2.48-5.22-2.48-9.82,0-4.33.84-7.46,2.52-9.39,1.67-1.93,3.86-2.9,6.56-2.9,1.95,0,3.61.54,4.97,1.64,1.36,1.09,2.26,2.58,2.69,4.46l7.26-1.73c-.83-2.91-2.07-5.14-3.72-6.69-2.78-2.63-6.39-3.94-10.83-3.94-5.09,0-9.2,1.67-12.32,5.02-3.12,3.35-4.69,8.04-4.69,14.09,0,5.72,1.55,10.23,4.66,13.52,3.11,3.3,7.07,4.95,11.9,4.95,3.9,0,7.12-.96,9.65-2.89,2.54-1.93,4.35-4.87,5.44-8.84l-7.11-2.26c-.61,2.66-1.62,4.61-3.03,5.85Z"/>
      <path class="cls-2" d="M1313.85,236.98c-1.34-.78-2.97-1.18-4.91-1.18-1.52,0-2.95.35-4.29,1.04-1.34.69-2.59,1.74-3.74,3.15-.79-1.41-1.81-2.45-3.05-3.15-1.24-.69-2.7-1.04-4.39-1.04-3.17,0-5.91,1.4-8.2,4.19v-3.59h-6.42v26.33h6.96v-12.79c0-2.53.19-4.34.56-5.43.37-1.09.99-1.93,1.85-2.5.86-.58,1.83-.87,2.9-.87.89,0,1.6.18,2.12.54.52.36.9.92,1.15,1.66.25.74.37,2.4.37,4.96v14.43h6.96v-12.64c0-2.48.19-4.29.57-5.44.38-1.15,1-2.02,1.86-2.61.86-.6,1.78-.89,2.75-.89,1.34,0,2.33.5,2.97,1.49.48.76.72,2.45.72,5.06v15.05h6.97v-16.83c0-2.51-.24-4.33-.72-5.45-.66-1.52-1.66-2.67-3-3.46Z"/>
      <path class="cls-2" d="M1393.8,254.07l.07-8.13c0-3.02-.31-5.1-.93-6.23-.62-1.13-1.69-2.06-3.21-2.8-1.52-.73-3.83-1.1-6.94-1.1-3.42,0-6,.61-7.73,1.83-1.74,1.22-2.96,3.11-3.67,5.65l6.32,1.14c.43-1.22.99-2.08,1.69-2.57.69-.49,1.66-.73,2.9-.73,1.83,0,3.08.28,3.74.86.66.57.99,1.52.99,2.86v.69c-1.26.53-3.51,1.1-6.77,1.71-2.42.46-4.26,1-5.54,1.62-1.28.62-2.28,1.51-2.99,2.68-.71,1.17-1.06,2.49-1.06,3.98,0,2.25.78,4.11,2.34,5.58,1.56,1.47,3.7,2.21,6.41,2.21,1.54,0,2.98-.29,4.34-.87,1.35-.58,2.63-1.45,3.82-2.6.05.13.13.41.25.82.26.91.49,1.6.67,2.06h6.89c-.61-1.26-1.03-2.43-1.25-3.53-.22-1.1-.33-2.81-.33-5.12ZM1387.03,251.47c0,1.67-.09,2.8-.27,3.4-.26.91-.82,1.68-1.66,2.31-1.14.83-2.34,1.24-3.6,1.24-1.12,0-2.05-.36-2.78-1.07s-1.09-1.55-1.09-2.53.45-1.81,1.36-2.45c.6-.4,1.86-.8,3.79-1.21s3.35-.77,4.24-1.07v1.39Z"/>
      <path class="cls-2" d="M1361.91,236.64c-.89.56-1.88,1.73-2.99,3.49v-3.74h-6.47v26.33h6.96v-8.13c0-4.48.2-7.42.59-8.82s.92-2.37,1.6-2.91,1.51-.81,2.48-.81,2.1.38,3.27,1.14l2.16-6.07c-1.47-.88-3-1.31-4.59-1.31-1.12,0-2.13.28-3.01.84Z"/>
      <path class="cls-2" d="M1343.82,239.68c-2.26-2.59-5.36-3.88-9.27-3.88-3.49,0-6.37,1.24-8.65,3.71-2.28,2.47-3.42,5.89-3.42,10.25,0,3.65.87,6.68,2.6,9.07,2.2,2.99,5.59,4.49,10.16,4.49,2.9,0,5.3-.66,7.23-1.99,1.93-1.33,3.33-3.27,4.22-5.81l-6.94-1.17c-.38,1.32-.94,2.28-1.69,2.88-.74.59-1.66.89-2.75.89-1.6,0-2.94-.57-4.02-1.72-1.08-1.15-1.64-2.76-1.69-4.82h17.45c.1-5.34-.98-9.3-3.25-11.89ZM1329.74,247.3c-.02-1.9.47-3.4,1.46-4.51.99-1.11,2.25-1.66,3.77-1.66,1.42,0,2.63.52,3.62,1.57.99,1.05,1.51,2.58,1.56,4.6h-10.41Z"/>
      <rect class="cls-2" x="1490.97" y="226.38" width="6.97" height="6.45"/>
      <path class="cls-2" d="M1638.24,256.51c-.84.75-1.93,1.13-3.25,1.13-1.77,0-3.18-.65-4.22-1.93-1.05-1.29-1.58-3.49-1.58-6.62,0-2.81.52-4.81,1.55-6.01,1.03-1.2,2.42-1.8,4.15-1.8,1.3,0,2.37.35,3.18,1.04.82.69,1.34,1.73,1.58,3.1l6.87-1.24c-.83-2.83-2.19-4.93-4.08-6.31-1.89-1.38-4.44-2.07-7.65-2.07-3.92,0-7.02,1.21-9.32,3.63-2.3,2.42-3.45,5.8-3.45,10.15s1.14,7.66,3.43,10.09c2.29,2.43,5.36,3.64,9.21,3.64,3.39,0,6.09-.8,8.11-2.4,2.01-1.6,3.38-3.98,4.09-7.12l-6.84-1.16c-.35,1.83-.94,3.13-1.78,3.88Z"/>
      <polygon class="cls-2" points="1559.54 236.4 1550.96 236.4 1542.81 245.67 1542.81 226.38 1535.84 226.38 1535.84 262.72 1542.81 262.72 1542.81 254.3 1546.05 250.9 1552.67 262.72 1560.19 262.72 1550.54 246.02 1559.54 236.4"/>
      <path class="cls-2" d="M1597.74,239.68c-2.26-2.59-5.36-3.88-9.27-3.88-3.49,0-6.37,1.24-8.65,3.71-2.28,2.47-3.42,5.89-3.42,10.25,0,3.65.87,6.68,2.6,9.07,2.2,2.99,5.59,4.49,10.16,4.49,2.9,0,5.3-.66,7.23-1.99,1.93-1.33,3.33-3.27,4.22-5.81l-6.94-1.17c-.38,1.32-.94,2.28-1.69,2.88-.74.59-1.66.89-2.75.89-1.6,0-2.94-.57-4.02-1.72-1.08-1.15-1.64-2.76-1.69-4.82h17.45c.1-5.34-.98-9.3-3.25-11.89ZM1583.66,247.3c-.02-1.9.47-3.4,1.46-4.51.99-1.11,2.25-1.66,3.77-1.66,1.42,0,2.63.52,3.62,1.57.99,1.05,1.51,2.58,1.56,4.6h-10.41Z"/>
      <rect class="cls-2" x="1127.01" y="226.38" width="6.97" height="6.45"/>
      <rect class="cls-2" x="1713.83" y="255.76" width="6.97" height="6.97"/>
      <rect class="cls-2" x="1605.87" y="246.07" width="13.69" height="6.97"/>
      <path class="cls-2" d="M1118.25,238.97c-.65-.92-1.63-1.69-2.91-2.28-1.29-.59-2.74-.89-4.34-.89-3.12,0-5.81,1.31-8.06,3.94v-13.36h-6.97v36.34h6.97v-13.19c0-2.21.21-3.89.63-5.02.42-1.13,1.09-1.98,2-2.54s1.94-.84,3.1-.84c1.01,0,1.84.22,2.51.66.67.44,1.14,1.03,1.4,1.77.26.74.4,2.49.4,5.25v13.91h6.96v-15.44c0-2.36-.12-4.11-.36-5.23s-.68-2.15-1.34-3.07Z"/>
      <rect class="cls-2" x="1127.01" y="236.4" width="6.97" height="26.33"/>
      <path class="cls-2" d="M1705.02,238.75c-.65-.86-1.62-1.57-2.89-2.12-1.27-.55-2.68-.83-4.21-.83-3.49,0-6.38,1.49-8.68,4.46v-3.87h-6.47v26.33h6.97v-11.92c0-2.94.18-4.96.53-6.05.36-1.09,1.01-1.97,1.97-2.63s2.04-.99,3.25-.99c.94,0,1.75.23,2.42.69.67.46,1.15,1.11,1.45,1.95.3.84.45,2.67.45,5.52v13.44h6.96v-16.36c0-2.03-.13-3.59-.38-4.68-.25-1.09-.71-2.07-1.36-2.92Z"/>
      <path class="cls-2" d="M1663.75,235.8c-2.58,0-4.91.57-7,1.71s-3.71,2.79-4.85,4.96c-1.14,2.17-1.71,4.4-1.71,6.72,0,3.03.57,5.59,1.71,7.7,1.14,2.11,2.8,3.71,4.99,4.8,2.19,1.09,4.49,1.64,6.9,1.64,3.9,0,7.13-1.31,9.7-3.93,2.57-2.62,3.85-5.92,3.85-9.9s-1.27-7.22-3.82-9.8c-2.55-2.59-5.81-3.88-9.79-3.88ZM1668.35,255.56c-1.23,1.39-2.76,2.08-4.57,2.08s-3.35-.69-4.59-2.08c-1.24-1.39-1.86-3.39-1.86-6s.62-4.61,1.86-6c1.24-1.39,2.77-2.08,4.59-2.08s3.34.69,4.57,2.08c1.23,1.39,1.85,3.37,1.85,5.95s-.62,4.66-1.85,6.05Z"/>
      <path class="cls-2" d="M287.54,59.74c0-2.53-1.46-4.32-3.82-5.16,1.79-.92,2.8-2.53,2.8-4.53,0-3.22-2.68-5.45-8.17-5.45h-10.67v20.86h11.27c5.6,0,8.58-2.12,8.58-5.72ZM273.54,48.86h4.05c1.97,0,2.98.69,2.98,2s-1.01,2.03-2.98,2.03h-4.05v-4.03ZM273.54,61.2v-4.23h4.95c2.03,0,3.1.69,3.1,2.12s-1.07,2.12-3.1,2.12h-4.95Z"/>
      <path class="cls-2" d="M179.94,65.88c3.84,0,6.94-1.4,8.97-3.94l-3.76-3.4c-1.31,1.58-2.92,2.44-4.92,2.44-3.43,0-5.81-2.38-5.81-5.96s2.38-5.96,5.81-5.96c2,0,3.61.86,4.92,2.44l3.76-3.4c-2.03-2.53-5.13-3.94-8.97-3.94-6.62,0-11.48,4.5-11.48,10.85s4.86,10.85,11.48,10.85Z"/>
      <polygon class="cls-2" points="212.76 60.9 201.86 60.9 201.86 57.08 211.13 57.08 211.13 52.67 201.86 52.67 201.86 49.15 212.38 49.15 212.38 44.59 196.02 44.59 196.02 65.46 212.76 65.46 212.76 60.9"/>
      <polygon class="cls-2" points="236.38 60.78 226.42 60.78 226.42 44.59 220.52 44.59 220.52 65.46 236.38 65.46 236.38 60.78"/>
      <polygon class="cls-2" points="259.93 60.9 249.02 60.9 249.02 57.08 258.29 57.08 258.29 52.67 249.02 52.67 249.02 49.15 259.54 49.15 259.54 44.59 243.18 44.59 243.18 65.46 259.93 65.46 259.93 60.9"/>
      <path class="cls-2" d="M300.99,59.91h3.22l3.79,5.54h6.32l-4.5-6.56c2.59-1.25,4.08-3.52,4.08-6.59,0-4.77-3.58-7.72-9.27-7.72h-9.54v20.86h5.9v-5.54ZM300.99,49.24h3.28c2.44,0,3.67,1.13,3.67,3.07s-1.22,3.04-3.67,3.04h-3.28v-6.11Z"/>
      <polygon class="cls-2" points="392.26 54.34 401.47 65.46 406.33 65.46 406.33 44.59 400.54 44.59 400.54 55.71 391.33 44.59 386.47 44.59 386.47 65.46 392.26 65.46 392.26 54.34"/>
      <path class="cls-2" d="M425.83,49.07c2,0,3.64.74,5.07,2.32l3.76-3.4c-2.06-2.47-5.22-3.82-9.12-3.82-6.77,0-11.63,4.5-11.63,10.85s4.86,10.85,11.51,10.85c3.04,0,6.35-.92,8.77-2.65v-8.64h-5.22v5.72c-1.04.48-2.08.69-3.19.69-3.52,0-5.9-2.44-5.9-5.96s2.38-5.96,5.96-5.96Z"/>
      <polygon class="cls-2" points="270.49 288.65 279.76 288.65 279.76 284.23 270.49 284.23 270.49 280.72 281.01 280.72 281.01 276.16 264.65 276.16 264.65 297.02 281.4 297.02 281.4 292.46 270.49 292.46 270.49 288.65"/>
      <polygon class="cls-2" points="250.78 297.02 250.78 289.54 258.77 276.16 253.04 276.16 248.1 284.44 243.15 276.16 236.92 276.16 244.88 289.45 244.88 297.02 250.78 297.02"/>
      <path class="cls-2" d="M295.86,276.16l-9.21,20.86h6.02l1.64-4.05h8.82l1.64,4.05h6.14l-9.24-20.86h-5.81ZM296.04,288.62l2.68-6.68,2.68,6.68h-5.37Z"/>
      <polygon class="cls-2" points="445.37 61.95 472.25 61.95 472.25 85.98 489.37 85.98 489.37 44.84 445.37 44.84 445.37 61.95"/>
      <polygon class="cls-2" points="155.59 279.67 126.94 279.67 126.94 253.34 109.82 253.34 109.82 296.79 155.59 296.79 155.59 279.67"/>
      <path class="cls-2" d="M326.78,61.41h8.82l1.64,4.05h6.14l-8.92-20.15-.32-.72h-5.81l-5.69,12.89-3.52,7.98h6.02l1.64-4.05ZM331.19,50.38l2.68,6.68h-5.37l2.68-6.68Z"/>
      <polygon class="cls-2" points="377.8 62.31 377.8 44.59 371.9 44.59 371.9 58.01 371.9 65.46 377.8 65.46 377.8 62.31"/>
      <polygon class="cls-2" points="352.93 65.46 358.83 65.46 358.83 49.27 359.92 49.27 365.21 49.27 365.21 44.59 353.5 44.59 346.52 44.59 346.52 49.27 352.93 49.27 352.93 65.46"/>
      <path class="cls-2" d="M335.87,283.88c0-4.77-3.58-7.72-9.27-7.72h-9.54v20.86h5.9v-5.54h3.22l3.79,5.54h6.32l-2.26-3.3-2.24-3.26c2.59-1.25,4.08-3.52,4.08-6.59ZM326.24,286.92h-3.28v-6.11h3.28c2.44,0,3.67,1.13,3.67,3.07s-1.22,3.04-3.67,3.04Z"/>
      <path class="cls-2" d="M350.96,292.85c-2.42,0-5.04-.83-6.89-2.06l-1.94,4.35c1.96,1.37,5.36,2.3,8.79,2.3,6.2,0,9.24-3.1,9.24-6.74,0-7.69-11.83-5.31-11.83-8.49,0-1.04.89-1.88,3.37-1.88,1.82,0,3.79.54,5.78,1.61l1.82-4.38c-2.06-1.19-4.86-1.82-7.57-1.82-6.2,0-9.24,3.04-9.24,6.77,0,7.75,11.86,5.34,11.86,8.64,0,1.01-.95,1.7-3.4,1.7Z"/>
      <path class="cls-2" d="M416.11,174.2c0-49.69-40.28-89.97-89.97-89.97-9.5,0-18.65,1.48-27.24,4.21-1.87.59-3.72,1.26-5.53,1.98-.48-.26-.93-.54-1.42-.79-9.39-4.77-21.13-7.35-34.73-7.35-27.54,0-49.94,9.27-63.84,25.74l13.13,11.33c11.84-13.64,28.06-20.08,49.17-20.08,6.61,0,12.46.76,17.57,2.18,3.34.93,6.33,2.15,9,3.63,2.76,1.53,5.2,3.33,7.24,5.42,5.55,5.67,8.4,13.3,8.4,22.49,0,1.1-.04,2.2-.12,3.31-.16,2.44-.51,4.9-1.15,7.45-1.62,6.44-5.13,13.42-12.07,21.95-1.64,2.01-3.47,4.11-5.51,6.31-1.65,1.78-3.4,3.61-5.35,5.52l-11.85,11.61-1.89,1.85-4.26,4.17-6.7,6.56-6.29,6.16-43.92,43.01v13.13h122.07c1.75.1,3.51.17,5.29.17,4.21,0,8.34-.31,12.39-.87,43.82-6.04,77.58-43.62,77.58-89.1ZM315.85,142.86c3.24-1.06,6.69-1.66,10.28-1.66.37,0,.72.04,1.09.05,8.68.28,16.51,3.88,22.24,9.61,5.97,5.97,9.66,14.22,9.66,23.33s-3.69,17.36-9.66,23.33c-5.97,5.97-14.22,9.66-23.33,9.66-6.66,0-12.85-1.99-18.03-5.38-1.91-1.25-3.69-2.67-5.3-4.28-4.52-4.52-7.73-10.35-9.02-16.86,13.85-14.85,19.89-26.46,22.07-37.81ZM260,247.54h-33.94l13.18-12.96,11.5-11.3c6.18,9.48,14.1,17.71,23.3,24.26h-14.03ZM326.13,256.1c-.32,0-.64-.02-.97-.02-12.75-.15-24.79-3.21-35.5-8.54-7.29-3.63-13.96-8.33-19.82-13.87-5.06-4.8-9.52-10.22-13.23-16.17l6.14-6.03,12.22-12.02,1.74-1.71,2.57-2.52,6.89-6.77c3.28,9.22,9.65,16.95,17.87,21.98,6.44,3.94,13.98,6.25,22.08,6.25,23.44,0,42.45-19,42.45-42.45s-19-42.45-42.45-42.45c-.81,0-1.6.08-2.4.12-2.34.13-4.63.42-6.85.92.01-.62.04-1.24.04-1.87,0-1.99-.11-3.92-.31-5.8-.9-8.55-3.84-16.01-8.52-22.22-1.88-2.5-4.06-4.78-6.5-6.86,1.52-.48,3.06-.9,4.62-1.29,6.38-1.59,13.05-2.45,19.92-2.45,45.23,0,81.9,36.67,81.9,81.9s-36.67,81.9-81.9,81.9Z"/>
      <path class="cls-2" d="M325.17,247.7v-.17h-3.89c1.29.08,2.58.15,3.89.17Z"/>
      <path class="cls-2" d="M545.25,328.14c2,0,3.64.74,5.07,2.32l3.76-3.4c-2.06-2.47-5.22-3.82-9.12-3.82-6.77,0-11.63,4.5-11.63,10.85s4.86,10.85,11.51,10.85c3.04,0,6.35-.92,8.77-2.65v-8.64h-5.22v5.72c-1.04.48-2.08.69-3.19.69-3.52,0-5.9-2.44-5.9-5.96s2.38-5.96,5.96-5.96Z"/>
      <polygon class="cls-2" points="446.12 336.15 455.39 336.15 455.39 331.74 446.12 331.74 446.12 328.23 456.64 328.23 456.64 323.67 440.28 323.67 440.28 344.53 457.03 344.53 457.03 339.97 446.12 339.97 446.12 336.15"/>
      <path class="cls-2" d="M483.6,331.39c0-4.77-3.58-7.72-9.27-7.72h-9.54v20.86h5.9v-5.54h3.22l3.79,5.54h6.32l-4.5-6.56c2.59-1.25,4.08-3.52,4.08-6.59ZM473.97,334.43h-3.28v-6.11h3.28c2.44,0,3.67,1.13,3.67,3.07s-1.22,3.04-3.67,3.04Z"/>
      <polygon class="cls-2" points="519.97 334.78 510.76 323.67 505.9 323.67 505.9 344.53 511.68 344.53 511.68 333.41 520.89 344.53 525.75 344.53 525.75 323.67 519.97 323.67 519.97 334.78"/>
      <rect class="cls-2" x="491.32" y="323.67" width="5.9" height="20.86"/>
      <polygon class="cls-2" points="401.34 334.78 392.13 323.67 387.27 323.67 387.27 344.53 393.05 344.53 393.05 333.41 402.26 344.53 407.12 344.53 407.12 323.67 401.34 323.67 401.34 334.78"/>
      <polygon class="cls-2" points="421.61 336.15 430.88 336.15 430.88 331.74 421.61 331.74 421.61 328.23 432.13 328.23 432.13 323.67 415.77 323.67 415.77 344.53 432.52 344.53 432.52 339.97 421.61 339.97 421.61 336.15"/>
      <path class="cls-2" d="M146.03,323.67l-9.21,20.86h6.02l1.64-4.05h8.82l1.64,4.05h6.14l-9.24-20.86h-5.81ZM146.21,336.12l2.68-6.68,2.68,6.68h-5.37Z"/>
      <polygon class="cls-2" points="330.82 334.78 321.61 323.67 316.75 323.67 316.75 344.53 322.54 344.53 322.54 333.41 331.75 344.53 336.61 344.53 336.61 323.67 330.82 323.67 330.82 334.78"/>
      <polygon class="cls-2" points="298.09 336.15 307.36 336.15 307.36 331.74 298.09 331.74 298.09 328.23 308.61 328.23 308.61 323.67 292.25 323.67 292.25 344.53 309 344.53 309 339.97 298.09 339.97 298.09 336.15"/>
      <path class="cls-2" d="M356.11,328.14c2,0,3.64.74,5.07,2.32l3.76-3.4c-2.06-2.47-5.22-3.82-9.12-3.82-6.77,0-11.63,4.5-11.63,10.85s4.86,10.85,11.51,10.85c3.04,0,6.35-.92,8.77-2.65v-8.64h-5.22v5.72c-1.04.48-2.08.69-3.19.69-3.52,0-5.9-2.44-5.9-5.96s2.38-5.96,5.96-5.96Z"/>
      <path class="cls-2" d="M57.27,323.25c-6.68,0-11.6,4.59-11.6,10.85s4.92,10.85,11.6,10.85,11.59-4.59,11.59-10.85-4.92-10.85-11.59-10.85ZM57.27,340.06c-3.16,0-5.63-2.36-5.63-5.96s2.48-5.96,5.63-5.96,5.63,2.35,5.63,5.96-2.47,5.96-5.63,5.96Z"/>
      <path class="cls-2" d="M257.9,323.67l-9.21,20.86h6.02l1.64-4.05h8.82l1.64,4.05h6.14l-9.24-20.86h-5.81ZM258.07,336.12l2.68-6.68,2.68,6.68h-5.37Z"/>
      <rect class="cls-2" x="372.69" y="323.67" width="5.9" height="20.86"/>
      <path class="cls-2" d="M243.46,331.39c0-4.77-3.58-7.72-9.27-7.72h-9.54v20.86h5.9v-5.54h3.22l3.79,5.54h6.32l-4.5-6.56c2.59-1.25,4.08-3.52,4.08-6.59ZM233.83,334.43h-3.28v-6.11h3.28c2.44,0,3.67,1.13,3.67,3.07s-1.22,3.04-3.67,3.04Z"/>
      <path class="cls-2" d="M123.91,328.14c2,0,3.61.86,4.92,2.44l3.76-3.4c-2.03-2.53-5.13-3.94-8.97-3.94-6.62,0-11.48,4.5-11.48,10.85s4.86,10.85,11.48,10.85c3.84,0,6.94-1.4,8.97-3.94l-3.76-3.4c-1.31,1.58-2.92,2.44-4.92,2.44-3.43,0-5.81-2.38-5.81-5.96s2.38-5.96,5.81-5.96Z"/>
      <polygon class="cls-2" points="76.44 344.53 82.34 344.53 82.34 337.38 91.55 337.38 91.55 332.82 82.34 332.82 82.34 328.23 92.81 328.23 92.81 323.67 76.44 323.67 76.44 344.53"/>
      <polygon class="cls-2" points="205.99 336.15 215.26 336.15 215.26 331.74 205.99 331.74 205.99 328.23 216.51 328.23 216.51 323.67 200.15 323.67 200.15 344.53 216.9 344.53 216.9 339.97 205.99 339.97 205.99 336.15"/>
      <polygon class="cls-2" points="186.58 323.67 179.42 335.71 172.09 323.67 167.23 323.67 167.23 344.53 172.69 344.53 172.69 333.77 178.02 342.47 180.65 342.47 186.01 333.47 186.07 344.53 191.5 344.53 191.44 323.67 186.58 323.67"/>
    </g>
  </g>
  <path class="cls-4" d="M1781.91,94.08c0,3.4-.85,6.57-2.55,9.5-1.7,2.94-4.02,5.25-6.95,6.94-2.94,1.69-6.1,2.54-9.5,2.54s-6.54-.85-9.48-2.54c-2.94-1.69-5.25-4-6.95-6.94-1.7-2.94-2.55-6.1-2.55-9.5s.85-6.55,2.55-9.49c1.7-2.94,4.02-5.26,6.95-6.95,2.94-1.69,6.1-2.54,9.48-2.54s6.57.85,9.5,2.54c2.94,1.69,5.25,4.01,6.95,6.95,1.7,2.94,2.55,6.11,2.55,9.49ZM1778.23,94.08c0-4.23-1.5-7.84-4.49-10.83-2.99-2.99-6.6-4.49-10.83-4.49s-7.84,1.5-10.83,4.49c-2.99,2.99-4.49,6.6-4.49,10.83s1.5,7.84,4.49,10.83c2.99,2.99,6.6,4.49,10.83,4.49s7.84-1.5,10.83-4.49c2.99-2.99,4.49-6.6,4.49-10.83ZM1754.3,83.93h9.08c2.57,0,4.43.52,5.58,1.55,1.15,1.04,1.73,2.43,1.73,4.17,0,1.36-.44,2.54-1.32,3.53-.88,1-2.26,1.72-4.15,2.16.78.3,1.35.61,1.72.95.51.46,1.05,1.15,1.62,2.06.03.07,1.13,2.02,3.28,5.87h-5.97c-1.94-3.86-3.24-6.17-3.9-6.93-.66-.75-1.33-1.13-1.99-1.13-.15,0-.36.02-.62.07v7.99h-5.05v-20.3ZM1759.35,92.54h2.19c1.46,0,2.49-.24,3.08-.71.6-.47.9-1.08.9-1.83s-.29-1.36-.86-1.83-1.55-.71-2.92-.71h-2.39v5.07Z"/>
</svg>