<?xml version="1.0" encoding="UTF-8"?>
<svg xmlns="http://www.w3.org/2000/svg" version="1.1" viewBox="0 0 100 100">
  <defs>
    <style>
      .cls-1 {
        fill: none;
        stroke: #131b2d;
        stroke-miterlimit: 10;
        stroke-width: 1.5px;
      }
    </style>
  </defs>
  <!-- Generator: Adobe Illustrator 28.7.1, SVG Export Plug-In . SVG Version: 1.2.0 Build 142)  -->
  <g>
    <g id="Layer_1">
      <g>
        <path class="cls-1" d="M84.1,41.5h-3.5c-.7-2.3-1.6-4.6-2.8-6.7l-.2-.2s0,0,0,0l2.4-2.4c1.3-1.3,1.3-3.4,0-4.8l-7.3-7.3c-1.3-1.3-3.4-1.3-4.8,0l-2.4,2.4c-.1,0-.2-.1-.3-.2h-.1c-.8-.6-1.7-.9-2.6-1.3-1.3-.6-2.7-1.1-4-1.4v-3.4c0-1.4-.9-2.6-2.1-3.1-.4-.2-.9-.3-1.3-.3h-10.4c-1.8,0-3.3,1.5-3.3,3.3v2.6s0,.9,0,.9c-2.5.7-4.8,1.6-7.1,2.9l-2.5-2.5c-1.3-1.3-3.4-1.3-4.8,0l-7.3,7.3c-.5.5-.8,1.1-.9,1.8-.2,1.1,0,2.2.9,3.1l2.5,2.4c-.5.8-.9,1.7-1.3,2.6-.7,1.4-1.2,2.9-1.7,4.4h-3.4c-.9,0-1.8.3-2.4,1-.6.6-1,1.5-1,2.4v10.4c0,1.9,1.5,3.4,3.4,3.4h3.5c.7,2.5,1.7,4.8,3,7l-2.5,2.4c-1.3,1.3-1.3,3.4,0,4.7l7.3,7.3c.2.2.3.3.5.4,1.3.9,3.1.8,4.3-.4l2.4-2.4c1.6.9,3.2,1.6,4.9,2.2.7.3,1.4.5,2.2.7v3.4c0,1.4.9,2.6,2.1,3.1.4.2.9.3,1.4.3h10.4c1.8,0,3.3-1.5,3.3-3.3v-3.5c2.5-.7,4.8-1.7,7-2.9l2.5,2.5c1.3,1.3,3.4,1.3,4.8,0l7.3-7.3c1-1,1.2-2.5.7-3.7-.2-.4-.4-.8-.7-1.1l-2.4-2.4c.6-1.1,1.2-2.2,1.6-3.4.2-.4.3-.8.4-1.1,0-.1.1-.3.2-.4.2-.7.5-1.4.7-2.1h3.5c1.9,0,3.4-1.5,3.4-3.4v-10.4c0-1.9-1.5-3.4-3.4-3.4Z"/>
        <circle class="cls-1" cx="50" cy="50" r="21.4"/>
        <polyline class="cls-1" points="43.5 51.5 47.9 55.6 57.8 44.4"/>
      </g>
    </g>
  </g>
</svg>