<?xml version="1.0" encoding="UTF-8"?>
<svg xmlns="http://www.w3.org/2000/svg" version="1.1" viewBox="0 0 325 100">
  <defs>
    <style>
      .cls-1, .cls-2 {
        fill: #1050c1;
      }

      .cls-3, .cls-4 {
        fill: #fff;
      }

      .cls-4, .cls-2 {
        fill-rule: evenodd;
      }
    </style>
  </defs>
  <!-- Generator: Adobe Illustrator 28.7.1, SVG Export Plug-In . SVG Version: 1.2.0 Build 142)  -->
  <g>
    <g id="Layer_1">
      <g>
        <path class="cls-1" d="M39.1,58.1c-.1.2-.3.4-.6.6s-.6.2-1,.2h-.9v2h-1v-5.1h1.9c.4,0,.7,0,1,.2s.5.3.6.6c.1.2.2.5.2.8,0,.3,0,.5-.2.8ZM38,57.8c.1-.1.2-.3.2-.5,0-.5-.3-.8-.8-.8h-.8v1.5h.8c.3,0,.5,0,.6-.2Z"/>
        <path class="cls-1" d="M41.1,60.5c-.4-.2-.7-.5-1-.9-.2-.4-.3-.8-.3-1.4s.1-1,.3-1.3c.2-.4.5-.7,1-.9.4-.2.8-.3,1.3-.3s.9.1,1.3.3.7.5,1,.9c.2.4.3.8.3,1.3s-.1,1-.3,1.4-.5.7-1,.9c-.4.2-.8.3-1.3.3s-.9-.1-1.3-.3ZM43.2,59.8c.2-.1.4-.3.5-.6s.2-.6.2-.9,0-.6-.2-.9c-.1-.3-.3-.5-.5-.6-.2-.1-.5-.2-.8-.2s-.6,0-.8.2c-.2.1-.4.3-.5.6s-.2.6-.2.9,0,.6.2.9.3.5.5.6c.2.1.5.2.8.2s.6,0,.8-.2Z"/>
        <path class="cls-1" d="M52.6,55.7l-1.4,5.1h-1.2l-1-3.7-1,3.7h-1.2s-1.4-5.1-1.4-5.1h1.1l.9,4,1-4h1.2l1,4,.9-4h1.1Z"/>
        <path class="cls-1" d="M54.3,56.5v1.3h1.7v.8h-1.7v1.4h2v.8h-3v-5.1h3v.8h-2Z"/>
        <path class="cls-1" d="M59.9,60.8l-1.1-2h-.5v2h-1v-5.1h1.9c.4,0,.7,0,1,.2s.5.3.6.6c.1.2.2.5.2.8s0,.6-.3.9c-.2.3-.5.5-.9.6l1.2,2.1h-1.2ZM58.2,58.1h.9c.3,0,.5,0,.6-.2.1-.1.2-.3.2-.6s0-.4-.2-.5-.3-.2-.6-.2h-.9v1.5Z"/>
        <path class="cls-1" d="M63,56.5v1.3h1.7v.8h-1.7v1.4h2v.8h-3v-5.1h3v.8h-2Z"/>
        <path class="cls-1" d="M69.1,56c.4.2.7.5.9.9.2.4.3.8.3,1.4s-.1,1-.3,1.3c-.2.4-.5.7-.9.9-.4.2-.9.3-1.4.3h-1.8v-5.1h1.8c.5,0,1,0,1.4.3ZM68.8,59.5c.3-.3.4-.7.4-1.2s-.2-1-.4-1.2-.7-.5-1.2-.5h-.7v3.4h.7c.5,0,1-.1,1.2-.4Z"/>
        <path class="cls-1" d="M76.5,58.6c.2.2.3.5.3.8s0,.5-.2.7c-.1.2-.3.4-.6.5-.2.1-.6.2-.9.2h-2.2v-5.1h2.1c.3,0,.7,0,.9.2.2.1.4.3.6.5s.2.4.2.7,0,.5-.2.8c-.2.2-.4.3-.6.4.3,0,.5.2.7.4ZM73.9,57.8h.9c.2,0,.4,0,.6-.2s.2-.3.2-.5,0-.4-.2-.5-.3-.2-.6-.2h-.9v1.3ZM75.5,59.8c.1-.1.2-.3.2-.5s0-.4-.2-.5-.3-.2-.6-.2h-1v1.4h1c.2,0,.4,0,.6-.2Z"/>
        <path class="cls-1" d="M81.7,55.7l-1.7,3.3v1.8h-1v-1.8l-1.7-3.3h1.2l1.1,2.3,1.1-2.3h1.2Z"/>
      </g>
      <path class="cls-3" d="M181,68.8c-1-.5-2.5-1-4.6-1.5-2.1-.5-3.4-.9-3.9-1.4-.4-.3-.6-.8-.6-1.3s.2-1,.7-1.3c.7-.5,1.7-.8,2.9-.8s2.1.2,2.7.7c.6.5,1,1.2,1.2,2.3l4.2-.2c0-1.9-.8-3.5-2.1-4.6s-3.3-1.7-5.9-1.7-3,.2-4.1.7c-1.1.5-2,1.2-2.6,2.1-.6.9-.9,1.9-.9,3,0,1.7.6,3.1,1.9,4.2.9.8,2.5,1.5,4.8,2.1,1.8.4,2.9.7,3.4.9.7.3,1.2.6,1.5.9.3.3.4.8.4,1.3,0,.8-.4,1.4-1,2-.7.6-1.7.9-3.1.9s-2.3-.3-3.1-1c-.8-.7-1.3-1.7-1.5-3l-4.1.4c.3,2.3,1.1,4.1,2.5,5.3s3.4,1.8,6.1,1.8,3.3-.2,4.6-.8,2.2-1.3,2.8-2.3c.7-1.1,1-2.2,1-3.4s-.3-2.4-.8-3.3c-.6-.9-1.3-1.6-2.3-2.1Z"/>
      <path class="cls-3" d="M225.5,77.4c-.3,0-.5,0-.7-.2-.2-.1-.3-.3-.4-.5,0-.2,0-.9,0-2.2v-6.1h2.7v-3.2h-2.7v-5.4l-4,2.3v3h-1.8v3.2h1.8v6.6c0,1.4,0,2.4.1,2.8.1.7.3,1.2.6,1.6.3.4.7.7,1.3.9.6.2,1.2.4,2,.4,1.2,0,2.2-.2,3.2-.6l-.3-3.1c-.7.3-1.2.4-1.6.4Z"/>
      <path class="cls-3" d="M193.7,75.9l-3.6-10.8h-4.3l5.8,15.2c-.2.8-.6,1.5-1,2.1-.4.6-1.1.8-2.1.8s-1.1,0-1.7-.2l.4,3.1c.7.2,1.5.2,2.3.2s1.4,0,2.1-.2c.6-.2,1.1-.4,1.5-.7s.8-.7,1.1-1.1.6-1.1,1-2l1-2.6,5.4-14.6h-4.2l-3.6,10.8Z"/>
      <path class="cls-3" d="M241.1,67.1c-1.3-1.5-3.1-2.2-5.3-2.2s-3.7.7-5,2.1-2,3.4-2,5.9.5,3.8,1.5,5.2c1.3,1.7,3.2,2.6,5.9,2.6s3.1-.4,4.2-1.2c1.1-.8,1.9-1.9,2.4-3.3l-4-.7c-.2.8-.5,1.3-1,1.7-.4.3-1,.5-1.6.5-.9,0-1.7-.3-2.3-1s-.9-1.6-1-2.8h10.1c0-3.1-.6-5.4-1.9-6.9ZM232.9,71.5c0-1.1.3-2,.8-2.6.6-.6,1.3-1,2.2-1s1.5.3,2.1.9c.6.6.9,1.5.9,2.7,0,0-6,0-6,0Z"/>
      <rect class="cls-3" x="97.8" y="70.8" width="7.9" height="4"/>
      <path class="cls-3" d="M116.5,76.8c-.5.4-1.1.7-1.9.7s-1.8-.4-2.4-1.1-.9-2-.9-3.8.3-2.8.9-3.5,1.4-1,2.4-1,1.4.2,1.8.6c.5.4.8,1,.9,1.8l4-.7c-.5-1.6-1.3-2.8-2.3-3.6s-2.6-1.2-4.4-1.2-4.1.7-5.4,2.1c-1.3,1.4-2,3.3-2,5.8s.7,4.4,2,5.8c1.3,1.4,3.1,2.1,5.3,2.1s3.5-.5,4.7-1.4c1.2-.9,1.9-2.3,2.4-4.1l-3.9-.7c-.2,1.1-.5,1.8-1,2.2Z"/>
      <path class="cls-3" d="M283.7,72.6c-.9-.7-2.3-1.3-4.5-1.8s-3.4-.9-3.8-1.1c-.3-.2-.4-.4-.4-.7s.1-.6.5-.8c.5-.3,1.2-.4,2.3-.4s1.5.2,1.9.5c.5.3.8.8.9,1.4l3.8-.7c-.4-1.3-1.1-2.3-2.1-3s-2.5-1-4.6-1-3.8.4-4.8,1.3c-1,.9-1.6,2-1.6,3.3s.6,2.6,1.8,3.4c.9.6,2.9,1.2,6.2,2,.7.2,1.1.3,1.3.5.2.2.3.4.3.8,0,.4-.2.8-.5,1.1-.5.4-1.3.6-2.3.6s-1.7-.2-2.2-.6c-.5-.4-.9-1-1-1.8l-4,.6c.4,1.4,1.2,2.6,2.4,3.4,1.2.8,2.8,1.3,4.9,1.3s4-.5,5.2-1.5c1.2-1,1.7-2.2,1.7-3.6,0-1.3-.4-2.3-1.3-3Z"/>
      <path class="cls-3" d="M154.9,66.5c-.4-.5-.9-.9-1.7-1.2-.7-.3-1.5-.5-2.4-.5-2,0-3.7.9-5,2.6v-2.2h-3.7v15.2h4v-6.9c0-1.7.1-2.9.3-3.5.2-.6.6-1.1,1.1-1.5.6-.4,1.2-.6,1.9-.6s1,.1,1.4.4.7.6.8,1.1c.2.5.3,1.5.3,3.2v7.7h4v-9.4c0-1.2,0-2.1-.2-2.7-.1-.6-.4-1.2-.8-1.7Z"/>
      <path class="cls-3" d="M210.9,70.8c-2.1-.5-3.4-.9-3.8-1.1-.3-.2-.4-.4-.4-.7s.1-.6.5-.8c.5-.3,1.2-.4,2.3-.4s1.5.2,1.9.5c.4.3.8.8.9,1.4l3.8-.7c-.4-1.3-1.1-2.3-2.1-3s-2.6-1-4.6-1-3.8.4-4.8,1.3c-1,.9-1.6,2-1.6,3.3s.6,2.6,1.8,3.4c.9.6,2.9,1.2,6.2,2,.7.2,1.1.3,1.3.5.2.2.3.4.3.8,0,.4-.2.8-.5,1.1-.5.4-1.3.6-2.3.6s-1.7-.2-2.2-.6-.9-1-1-1.8l-4,.6c.4,1.4,1.2,2.6,2.4,3.4,1.2.8,2.8,1.3,4.9,1.3s4-.5,5.2-1.5c1.2-1,1.7-2.2,1.7-3.6s-.4-2.3-1.3-3c-.9-.7-2.3-1.3-4.5-1.8Z"/>
      <path class="cls-3" d="M93.1,67.1c-1.3-1.5-3.1-2.2-5.3-2.2s-3.7.7-5,2.1c-1.3,1.4-2,3.4-2,5.9s.5,3.8,1.5,5.2c1.3,1.7,3.2,2.6,5.9,2.6s3.1-.4,4.2-1.2c1.1-.8,1.9-1.9,2.4-3.3l-4-.7c-.2.8-.5,1.3-1,1.7-.4.3-1,.5-1.6.5-.9,0-1.7-.3-2.3-1s-.9-1.6-1-2.8h10.1c0-3.1-.6-5.4-1.9-6.9ZM85,71.5c0-1.1.3-2,.8-2.6s1.3-1,2.2-1,1.5.3,2.1.9c.6.6.9,1.5.9,2.7,0,0-6,0-6,0Z"/>
      <path class="cls-3" d="M266.1,65.5c-.8-.4-1.7-.7-2.8-.7s-1.7.2-2.5.6-1.5,1-2.2,1.8c-.5-.8-1-1.4-1.8-1.8-.7-.4-1.6-.6-2.5-.6-1.8,0-3.4.8-4.7,2.4v-2.1h-3.7v15.2h4v-7.4c0-1.5.1-2.5.3-3.1s.6-1.1,1.1-1.4c.5-.3,1.1-.5,1.7-.5s.9,0,1.2.3.5.5.7,1,.2,1.4.2,2.9v8.3h4v-7.3c0-1.4.1-2.5.3-3.1.2-.7.6-1.2,1.1-1.5.5-.3,1-.5,1.6-.5s1.3.3,1.7.9c.3.4.4,1.4.4,2.9v8.7h4v-9.7c0-1.4-.1-2.5-.4-3.1-.4-.9-.9-1.5-1.7-2Z"/>
      <path class="cls-3" d="M131.2,64.8c-1.5,0-2.8.3-4,1-1.2.7-2.1,1.6-2.8,2.9-.7,1.2-1,2.5-1,3.9s.3,3.2,1,4.4c.7,1.2,1.6,2.1,2.9,2.8,1.3.6,2.6.9,4,.9,2.2,0,4.1-.8,5.6-2.3s2.2-3.4,2.2-5.7-.7-4.2-2.2-5.7c-1.5-1.5-3.3-2.2-5.6-2.2ZM133.8,76.2c-.7.8-1.6,1.2-2.6,1.2s-1.9-.4-2.6-1.2c-.7-.8-1.1-1.9-1.1-3.5s.4-2.7,1.1-3.5c.7-.8,1.6-1.2,2.6-1.2s1.9.4,2.6,1.2c.7.8,1.1,1.9,1.1,3.4,0,1.5-.3,2.7-1.1,3.5Z"/>
      <g>
        <rect class="cls-3" x="93.6" y="18.1" width="22.1" height="7.5"/>
        <rect class="cls-3" x="93.6" y="42.3" width="22.1" height="7.5"/>
        <g>
          <g>
            <path class="cls-3" d="M39.8,48.9c-1.8-.7-3.2-1.8-4.3-3.3s-1.7-3.2-1.7-5.2h8.1c.1,1.2.5,2,1.2,2.7s1.6.9,2.7.9,2-.3,2.7-.8c.7-.5,1-1.2,1-2.2s-.3-1.4-.8-1.9-1.2-.9-1.9-1.2-1.8-.7-3.2-1.1c-2-.6-3.7-1.2-4.9-1.9s-2.4-1.5-3.3-2.8c-.9-1.2-1.4-2.8-1.4-4.8,0-2.9,1-5.2,3.2-6.8s4.8-2.5,8.2-2.5,6.2.8,8.3,2.5c2.1,1.6,3.2,3.9,3.4,6.9h-8.2c0-1-.4-1.8-1.1-2.4-.7-.6-1.6-.9-2.6-.9s-1.7.2-2.2.7-.8,1.2-.8,2.1.5,1.8,1.4,2.4c1,.6,2.4,1.2,4.5,1.8,2,.7,3.7,1.3,4.9,2,1.3.6,2.3,1.5,3.3,2.7.9,1.2,1.4,2.7,1.4,4.6s-.5,3.4-1.4,4.8c-.9,1.5-2.2,2.6-3.9,3.5-1.7.9-3.8,1.3-6.1,1.3-2.3,0-4.3-.3-6.2-1.1Z"/>
            <path class="cls-3" d="M89,18.5v31.2h-7.6v-12.9h-11.8v12.8h-7.6v-31.2h7.6v12.2h11.8v-12.2h7.6Z"/>
          </g>
          <g>
            <path class="cls-3" d="M126.1,43.9h10v5.9h-17.6v-31.2h7.6s0,25.3,0,25.3Z"/>
            <path class="cls-3" d="M160,18.5v6.1h-12.7v6.6h9.5v5.9h-9.5v12.6h-7.6v-31.2h20.3Z"/>
          </g>
          <rect class="cls-1" x="93.9" y="30.3" width="19.5" height="6.6"/>
        </g>
      </g>
      <g>
        <path class="cls-1" d="M186.4,18.5v6.2h-8.4v25.5h-7.7v-25.5h-8.4v-6.2h24.5Z"/>
        <path class="cls-1" d="M201.3,25.9c1.4-.8,2.9-1.2,4.5-1.2v8.2h-2.1c-1.9,0-3.4.4-4.3,1.2s-1.4,2.3-1.4,4.3v11.7h-7.7v-25.2h7.7v4.2c.9-1.4,2-2.5,3.4-3.3Z"/>
        <path class="cls-1" d="M209.5,30.7c1-2,2.3-3.5,4-4.5,1.7-1,3.6-1.6,5.6-1.6s3.3.4,4.7,1.1,2.4,1.7,3.1,2.8v-3.6h7.7v25.2h-7.7v-3.6c-.8,1.2-1.8,2.1-3.1,2.8s-2.9,1.1-4.7,1.1-3.9-.5-5.6-1.6-3-2.6-4-4.6-1.5-4.2-1.5-6.8.5-4.9,1.5-6.8ZM225.3,33c-1.1-1.1-2.4-1.7-3.9-1.7s-2.8.5-3.9,1.6c-1.1,1.1-1.6,2.6-1.6,4.5s.5,3.5,1.6,4.6,2.4,1.7,3.9,1.7,2.8-.6,3.9-1.7c1.1-1.1,1.6-2.6,1.6-4.5s-.5-3.5-1.6-4.6Z"/>
        <path class="cls-1" d="M240.2,30.7c1.1-2,2.6-3.5,4.5-4.5,1.9-1,4.1-1.6,6.6-1.6s5.8.8,7.9,2.5c2.1,1.6,3.5,4,4.2,7h-8.2c-.7-1.9-2-2.9-4-2.9s-2.5.5-3.4,1.7-1.3,2.7-1.3,4.7.4,3.6,1.3,4.7,2,1.7,3.4,1.7,3.3-1,4-2.9h8.2c-.7,3-2.1,5.3-4.2,7-2.1,1.7-4.8,2.5-7.9,2.5s-4.6-.5-6.6-1.6-3.4-2.6-4.5-4.5c-1.1-2-1.6-4.2-1.6-6.9,0-2.6.5-4.9,1.6-6.8Z"/>
        <path class="cls-1" d="M282.8,50.2l-7.7-10.5v10.5h-7.7V16.8h7.7v18.5l7.6-10.2h9.5l-10.5,12.6,10.5,12.5h-9.6Z"/>
      </g>
      <g>
        <path class="cls-2" d="M220.6,37c-.7.5-.4,1.5.5,1.5s1.1-1.1.5-1.5c-.3-.2-.6-.2-.9,0h0Z"/>
        <path class="cls-4" d="M220.5,37.4c-.3-.2-.2-.7.2-.7s.5.5.2.7c-.1,0-.3,0-.4,0h0Z"/>
        <path class="cls-4" d="M221.4,38.5c-.2-.1,0-.3.1-.3s.3.2.1.3c0,0-.2,0-.2,0h0Z"/>
      </g>
      <g>
        <path class="cls-1" d="M220.6,41.1c-.7-.7-1.1-1.7-1.2-2.8h0v-1.2c-.8.9-1.1,2.1-.9,3.2.6.6,1.5,1,2.4,1-.1,0-.3-.2-.4-.3Z"/>
        <path class="cls-1" d="M221,33.8c-.9,0-1.8.4-2.4,1,.2,0,.3,0,.5,0h0c1,0,2,.4,2.8,1.2l.8.8c0-1.2-.7-2.3-1.7-2.9Z"/>
        <path class="cls-1" d="M223.8,34.8c-.6-.6-1.5-1-2.4-1,.1,0,.3.2.4.3.7.7,1.2,1.7,1.2,2.8v1.2c.8-.9,1.1-2.1.8-3.2Z"/>
        <path class="cls-1" d="M223.2,40.5h0c-1,0-2-.4-2.8-1.1l-.8-.8c0,1.2.7,2.3,1.7,2.9.9,0,1.8-.4,2.4-1-.2,0-.3,0-.5,0Z"/>
        <path class="cls-1" d="M224,35c0,.2,0,.3,0,.5,0,1-.4,2-1.1,2.8l-.8.8c1.2,0,2.3-.7,2.9-1.7,0-.9-.4-1.8-1-2.4Z"/>
        <path class="cls-1" d="M218.4,35c-.6.6-1,1.5-1,2.4.1-.1.2-.3.3-.4.7-.7,1.7-1.2,2.8-1.2h1.2c-.9-.8-2.1-1.1-3.2-.9Z"/>
        <path class="cls-1" d="M224.7,38.2c-.7.7-1.7,1.2-2.8,1.2h-1.1c.9.8,2.1,1.1,3.2.8.6-.6,1-1.5,1-2.4,0,.1-.2.3-.3.4Z"/>
        <path class="cls-1" d="M220.2,36.1c-1.2,0-2.3.7-2.9,1.7,0,.9.4,1.8,1,2.4,0-.2,0-.3,0-.5,0-1,.4-2,1.1-2.8l.8-.8Z"/>
      </g>
    </g>
  </g>
</svg>