<?xml version="1.0" encoding="UTF-8"?>
<svg id="Layer_1" xmlns="http://www.w3.org/2000/svg" version="1.1" viewBox="0 0 325 100">
  <!-- Generator: Adobe Illustrator 29.1.0, SVG Export Plug-In . SVG Version: 2.1.0 Build 142)  -->
  <defs>
    <style>
      .st0 {
        fill: #fff;
      }

      .st1, .st2 {
        fill: #1c4da1;
      }

      .st2 {
        fill-rule: evenodd;
      }
    </style>
  </defs>
  <g>
    <g>
      <g>
        <rect class="st0" x="97.1" y="23.2" width="22.7" height="7.7"/>
        <rect class="st0" x="97.1" y="48" width="22.7" height="7.7"/>
        <g>
          <g>
            <path class="st0" d="M41.8,54.9c-1.9-.8-3.3-1.9-4.5-3.4-1.1-1.5-1.7-3.3-1.8-5.4h8.3c.1,1.2.5,2.1,1.2,2.7.7.6,1.6.9,2.7.9s2.1-.3,2.7-.8c.7-.5,1-1.3,1-2.2s-.3-1.4-.8-2c-.5-.5-1.2-.9-2-1.3-.8-.3-1.9-.7-3.3-1.1-2.1-.6-3.8-1.3-5.1-1.9-1.3-.6-2.4-1.6-3.4-2.8-.9-1.3-1.4-2.9-1.4-4.9,0-3,1.1-5.3,3.2-7,2.2-1.7,5-2.5,8.5-2.5s6.4.8,8.6,2.5c2.2,1.7,3.3,4,3.5,7.1h-8.5c0-1-.4-1.9-1.1-2.4-.7-.6-1.6-.9-2.7-.9s-1.7.3-2.3.8c-.6.5-.9,1.2-.9,2.2s.5,1.8,1.5,2.4c1,.6,2.5,1.2,4.6,1.9,2.1.7,3.8,1.4,5.1,2,1.3.6,2.4,1.6,3.4,2.8.9,1.2,1.4,2.8,1.4,4.7s-.5,3.5-1.4,5c-.9,1.5-2.3,2.7-4,3.6-1.8.9-3.9,1.3-6.3,1.3s-4.5-.4-6.3-1.1Z"/>
            <path class="st0" d="M92.4,23.6v32.1h-7.8v-13.2h-12.2v13.2h-7.8V23.6h7.8v12.6h12.2v-12.6h7.8Z"/>
          </g>
          <g>
            <path class="st0" d="M130.5,49.7h10.2v6h-18.1V23.6h7.8v26.1Z"/>
            <path class="st0" d="M165.4,23.6v6.3h-13.1v6.8h9.8v6.1h-9.8v13h-7.8V23.6h20.9Z"/>
          </g>
          <rect class="st0" x="97.4" y="35.7" width="20" height="6.8"/>
        </g>
      </g>
      <g>
        <path class="st1" d="M201.8,23.4l-11.6,32.6h-9.9l-11.6-32.6h8.4l8.1,24.6,8.1-24.6h8.4Z"/>
        <path class="st1" d="M205.6,26.2c-.9-.8-1.3-1.8-1.3-3s.4-2.3,1.3-3.1c.9-.8,2-1.2,3.4-1.2s2.5.4,3.4,1.2c.9.8,1.3,1.8,1.3,3.1s-.4,2.2-1.3,3c-.9.8-2,1.2-3.4,1.2s-2.5-.4-3.4-1.2ZM213,30.1v25.9h-7.9v-25.9h7.9Z"/>
        <path class="st1" d="M223.3,55.2c-1.8-.8-3.2-1.8-4.2-3.2-1-1.3-1.6-2.9-1.7-4.5h7.8c0,.9.5,1.6,1.3,2.2s1.7.8,2.7.8,1.8-.2,2.3-.6.8-.9.8-1.5-.4-1.3-1.2-1.6c-.8-.4-2-.7-3.8-1.2-1.9-.4-3.4-.9-4.6-1.4s-2.3-1.2-3.2-2.3c-.9-1-1.3-2.4-1.3-4.2s.4-2.8,1.2-4.1c.8-1.2,2-2.2,3.6-2.9,1.6-.7,3.5-1.1,5.7-1.1,3.2,0,5.8.8,7.7,2.4,1.9,1.6,2.9,3.7,3.2,6.4h-7.3c-.1-.9-.5-1.6-1.2-2.1s-1.5-.8-2.6-.8-1.6.2-2.1.5c-.5.4-.7.8-.7,1.5s.4,1.3,1.2,1.7c.8.4,2,.7,3.7,1.1,1.9.5,3.5,1,4.7,1.5,1.2.5,2.3,1.3,3.2,2.3.9,1.1,1.4,2.5,1.4,4.3,0,1.5-.4,2.9-1.3,4.1-.9,1.2-2.1,2.1-3.7,2.8-1.6.7-3.4,1-5.5,1s-4.3-.4-6-1.2Z"/>
        <path class="st1" d="M259.1,49.2v6.7h-4c-2.9,0-5.1-.7-6.7-2.1-1.6-1.4-2.4-3.7-2.4-6.9v-10.3h-3.2v-6.6h3.2v-6.3h7.9v6.3h5.2v6.6h-5.2v10.4c0,.8.2,1.3.6,1.7s1,.5,1.9.5h2.8Z"/>
        <path class="st1" d="M263.4,36c1-2,2.4-3.6,4.1-4.6,1.7-1.1,3.7-1.6,5.8-1.6s3.4.4,4.8,1.1c1.4.7,2.4,1.7,3.2,2.9v-3.7h7.9v25.9h-7.9v-3.7c-.8,1.2-1.8,2.2-3.2,2.9-1.4.7-3,1.1-4.8,1.1s-4-.5-5.8-1.6c-1.7-1.1-3.1-2.7-4.1-4.7-1-2-1.5-4.4-1.5-7s.5-5,1.5-7ZM279.6,38.3c-1.1-1.1-2.4-1.7-4-1.7s-2.9.6-4,1.7c-1.1,1.1-1.6,2.7-1.6,4.7s.5,3.5,1.6,4.7c1.1,1.2,2.4,1.7,4,1.7s2.9-.6,4-1.7c1.1-1.1,1.6-2.7,1.6-4.7s-.5-3.5-1.6-4.7Z"/>
      </g>
    </g>
    <g>
      <g>
        <path class="st2" d="M275.2,42.5c-.7.5-.4,1.6.5,1.6s1.2-1.1.5-1.6c-.3-.2-.7-.2-.9,0h0Z"/>
        <path class="st2" d="M275.1,42.9c-.3-.2-.2-.7.2-.7s.6.5.2.7c-.1,0-.3,0-.4,0h0Z"/>
        <path class="st2" d="M276.1,44.1c-.2-.1,0-.4.1-.4s.3.3.1.4c0,0-.2,0-.2,0h0Z"/>
      </g>
      <g>
        <path class="st1" d="M275.2,46.7c-.8-.8-1.2-1.8-1.2-2.8h0v-1.2c-.8.9-1.1,2.2-.9,3.3.7.6,1.5,1,2.5,1-.1-.1-.3-.2-.4-.3Z"/>
        <path class="st1" d="M275.6,39.2c-.9,0-1.8.4-2.5,1,.2,0,.3,0,.5,0,0,0,0,0,0,0,1.1,0,2.1.4,2.8,1.2l.8.8c0-1.2-.8-2.3-1.7-3Z"/>
        <path class="st1" d="M278.5,40.2c-.7-.6-1.5-1-2.5-1,.1.1.3.2.4.3.8.8,1.2,1.8,1.2,2.9v1.2c.8-.9,1.1-2.2.9-3.3Z"/>
        <path class="st1" d="M277.9,46.1h0c-1.1,0-2.1-.4-2.8-1.2l-.8-.8c0,1.2.8,2.3,1.7,3,1,0,1.8-.4,2.5-1-.2,0-.4,0-.5,0Z"/>
        <path class="st1" d="M278.7,40.5c0,.2,0,.3,0,.5,0,1.1-.4,2.1-1.2,2.9l-.8.8c1.2,0,2.3-.8,3-1.7,0-.9-.4-1.8-1-2.5Z"/>
        <path class="st1" d="M272.9,40.5c-.6.7-1,1.5-1,2.5.1-.1.2-.3.3-.4.8-.8,1.8-1.2,2.9-1.2h0s1.2,0,1.2,0c-.9-.8-2.2-1.1-3.3-.9Z"/>
        <path class="st1" d="M279.4,43.7c-.8.8-1.8,1.2-2.8,1.2h-1.2c.9.8,2.2,1.1,3.3.9.6-.7,1-1.5,1-2.5-.1.1-.2.3-.3.4Z"/>
        <path class="st1" d="M274.8,41.6c-1.2,0-2.3.8-3,1.7,0,1,.4,1.8,1,2.5,0-.2,0-.3,0-.5,0-1.1.4-2.1,1.2-2.9l.8-.8Z"/>
      </g>
    </g>
  </g>
  <g>
    <g>
      <path class="st0" d="M88.8,69.2c-.2.3-.4.5-.7.7s-.8.3-1.3.3h-1v2.4h-1.2v-6.2h2.3c.5,0,.9,0,1.2.2.3.2.6.4.8.7.2.3.3.6.3,1s0,.6-.2.9ZM87.5,68.9c.2-.2.2-.4.2-.7,0-.6-.3-.9-1-.9h-1v1.8h1c.3,0,.6,0,.8-.2Z"/>
      <path class="st0" d="M91.2,72.2c-.5-.3-.9-.6-1.1-1.1-.3-.5-.4-1-.4-1.6s.1-1.1.4-1.6.7-.9,1.1-1.1c.5-.3,1-.4,1.6-.4s1.1.1,1.6.4c.5.3.9.6,1.1,1.1s.4,1,.4,1.6-.1,1.1-.4,1.6c-.3.5-.7.9-1.1,1.1-.5.3-1,.4-1.6.4s-1.1-.1-1.6-.4ZM93.8,71.2c.3-.2.5-.4.7-.7.2-.3.2-.7.2-1.1s0-.8-.2-1.1-.4-.5-.7-.7c-.3-.2-.6-.2-1-.2s-.7,0-1,.2c-.3.2-.5.4-.7.7-.2.3-.2.7-.2,1.1s0,.8.2,1.1c.2.3.4.6.7.7.3.2.6.3,1,.3s.7,0,1-.3Z"/>
      <path class="st0" d="M105.1,66.4l-1.7,6.2h-1.5l-1.2-4.4-1.2,4.4h-1.4s-1.7-6.2-1.7-6.2h1.3l1.1,4.8,1.3-4.8h1.4l1.2,4.8,1.1-4.8h1.3Z"/>
      <path class="st0" d="M107.1,67.4v1.5h2.1v1h-2.1v1.6h2.3v1h-3.6v-6.2h3.6v1h-2.3Z"/>
      <path class="st0" d="M113.8,72.5l-1.4-2.4h-.6v2.4h-1.2v-6.2h2.3c.5,0,.9,0,1.2.3.3.2.6.4.8.7s.3.6.3,1-.1.8-.4,1.1-.6.6-1,.7l1.5,2.5h-1.4ZM111.8,69.2h1c.3,0,.6,0,.7-.2.2-.2.2-.4.2-.7s0-.5-.2-.7c-.2-.2-.4-.2-.7-.2h-1v1.8Z"/>
      <path class="st0" d="M117.5,67.4v1.5h2.1v1h-2.1v1.6h2.3v1h-3.6v-6.2h3.6v1h-2.3Z"/>
      <path class="st0" d="M124.8,66.8c.5.3.9.6,1.1,1.1.3.5.4,1,.4,1.6s-.1,1.2-.4,1.6c-.3.5-.6.8-1.1,1.1-.5.3-1.1.4-1.7.4h-2.2v-6.2h2.2c.6,0,1.2.1,1.7.4ZM124.5,71c.4-.4.5-.9.5-1.5s-.2-1.1-.5-1.5c-.4-.4-.9-.5-1.5-.5h-.9v4.1h.9c.6,0,1.1-.2,1.5-.5Z"/>
      <path class="st0" d="M133.7,69.9c.2.3.3.6.3,1s0,.6-.2.9-.4.4-.7.6-.7.2-1.1.2h-2.7v-6.2h2.5c.4,0,.8,0,1.1.2.3.1.5.3.7.6.2.2.2.5.2.8s0,.7-.3.9c-.2.2-.4.4-.8.5.3,0,.6.2.9.5ZM130.6,68.9h1.1c.3,0,.5,0,.7-.2.2-.1.2-.3.2-.6s0-.4-.2-.6-.4-.2-.7-.2h-1.1v1.5ZM132.5,71.3c.2-.1.3-.3.3-.6s0-.5-.3-.6c-.2-.1-.4-.2-.7-.2h-1.2v1.7h1.2c.3,0,.5,0,.7-.2Z"/>
      <path class="st0" d="M139.9,66.4l-2.1,4v2.1h-1.2v-2.1l-2.1-4h1.4l1.3,2.8,1.3-2.8h1.4Z"/>
    </g>
    <g>
      <path class="st0" d="M214.4,68.4c-.7-.4-1.8-.7-3.3-1.1-1.5-.4-2.4-.7-2.8-1-.3-.3-.5-.6-.5-.9s.2-.7.5-.9c.5-.4,1.2-.5,2.1-.5s1.5.2,1.9.5.7.9.8,1.7h3.1c0-1.5-.6-2.6-1.5-3.5-1-.8-2.4-1.2-4.3-1.2s-2.2.2-3,.5c-.8.4-1.5.9-1.9,1.5-.4.7-.7,1.4-.7,2.2,0,1.2.5,2.2,1.4,3,.7.6,1.8,1.1,3.4,1.5,1.3.3,2.1.5,2.4.7.5.2.9.4,1.1.7s.3.6.3.9c0,.6-.2,1-.7,1.5s-1.2.6-2.2.6-1.7-.2-2.2-.7c-.5-.5-.9-1.2-1.1-2.2l-3,.3c.2,1.7.8,3,1.8,3.9,1,.9,2.5,1.3,4.4,1.3s2.4-.2,3.3-.6,1.6-.9,2-1.7c.5-.8.7-1.6.7-2.4s-.2-1.8-.6-2.4c-.4-.6-1-1.2-1.7-1.5Z"/>
      <path class="st0" d="M246.6,74.6c-.2,0-.4,0-.5-.1-.1,0-.2-.2-.3-.4,0-.1,0-.7,0-1.6v-4.4h2v-2.3h-2v-3.9l-2.9,1.7v2.2h-1.3v2.3h1.3v4.8c0,1,0,1.7,0,2,0,.5.2.9.4,1.1.2.3.5.5.9.7s.9.3,1.4.3c.9,0,1.6-.1,2.3-.4l-.2-2.2c-.5.2-.9.3-1.2.3Z"/>
      <path class="st0" d="M223.6,73.6l-2.6-7.8h-3.1l4.2,11c-.2.6-.4,1.1-.7,1.5-.3.4-.8.6-1.5.6s-.8,0-1.2-.1l.3,2.3c.5.1,1.1.2,1.6.2s1,0,1.5-.2c.4-.1.8-.3,1.1-.5s.6-.5.8-.8c.2-.3.5-.8.7-1.5l.7-1.9,3.9-10.5h-3l-2.6,7.8Z"/>
      <path class="st0" d="M257.8,67.2c-.9-1.1-2.2-1.6-3.9-1.6s-2.6.5-3.6,1.5-1.4,2.4-1.4,4.3.4,2.8,1.1,3.8c.9,1.2,2.3,1.9,4.2,1.9s2.2-.3,3-.8,1.4-1.4,1.8-2.4l-2.9-.5c-.2.5-.4.9-.7,1.2-.3.2-.7.4-1.1.4-.7,0-1.2-.2-1.7-.7s-.7-1.1-.7-2h7.3c0-2.2-.4-3.9-1.4-4.9ZM251.9,70.3c0-.8.2-1.4.6-1.9.4-.5.9-.7,1.6-.7s1.1.2,1.5.7c.4.4.6,1.1.6,1.9h-4.3Z"/>
      <rect class="st0" x="154.4" y="69.8" width="5.7" height="2.9"/>
      <path class="st0" d="M167.9,74.2c-.4.3-.8.5-1.4.5s-1.3-.3-1.8-.8c-.4-.5-.7-1.5-.7-2.8s.2-2,.6-2.5c.4-.5,1-.7,1.7-.7s1,.1,1.3.4.6.7.7,1.3l2.9-.5c-.3-1.2-.9-2-1.7-2.6s-1.8-.9-3.2-.9-2.9.5-3.9,1.5c-1,1-1.4,2.4-1.4,4.2s.5,3.2,1.4,4.2c1,1,2.2,1.5,3.8,1.5s2.5-.3,3.4-1c.8-.7,1.4-1.7,1.7-3l-2.8-.5c-.1.8-.4,1.3-.7,1.6Z"/>
      <path class="st0" d="M288.6,71.2c-.6-.5-1.7-.9-3.2-1.3-1.5-.4-2.4-.6-2.7-.8-.2-.1-.3-.3-.3-.5s.1-.4.3-.6c.3-.2.9-.3,1.6-.3s1.1.1,1.4.3c.3.2.5.6.7,1l2.7-.5c-.3-1-.8-1.7-1.5-2.2-.7-.5-1.8-.7-3.3-.7s-2.7.3-3.5,1c-.7.6-1.1,1.4-1.1,2.4s.4,1.9,1.3,2.5c.6.4,2.1.9,4.4,1.4.5.1.8.2,1,.4.1.1.2.3.2.5,0,.3-.1.6-.4.8-.4.3-.9.4-1.7.4s-1.2-.1-1.6-.4c-.4-.3-.6-.7-.8-1.3l-2.9.4c.3,1,.8,1.9,1.7,2.5.9.6,2,.9,3.5.9s2.9-.4,3.7-1.1c.8-.7,1.3-1.6,1.3-2.6s-.3-1.6-.9-2.2Z"/>
      <path class="st0" d="M195.6,66.8c-.3-.4-.7-.7-1.2-.9-.5-.2-1.1-.3-1.8-.3-1.5,0-2.7.6-3.6,1.9v-1.6h-2.7v10.9h2.9v-5c0-1.2,0-2.1.2-2.5s.4-.8.8-1.1c.4-.3.8-.4,1.4-.4s.7,0,1,.3.5.5.6.8c.1.3.2,1.1.2,2.3v5.6h2.9v-6.8c0-.8,0-1.5-.2-1.9-.1-.5-.3-.9-.6-1.2Z"/>
      <path class="st0" d="M236,69.9c-1.5-.4-2.4-.6-2.7-.8-.2-.1-.3-.3-.3-.5s.1-.4.3-.6c.3-.2.9-.3,1.6-.3s1.1.1,1.4.3c.3.2.5.6.7,1l2.7-.5c-.3-1-.8-1.7-1.5-2.2-.7-.5-1.8-.7-3.3-.7s-2.7.3-3.5,1c-.7.6-1.1,1.4-1.1,2.4s.4,1.9,1.3,2.5c.6.4,2.1.9,4.4,1.4.5.1.8.2,1,.4.1.1.2.3.2.5,0,.3-.1.6-.4.8-.4.3-.9.4-1.7.4s-1.2-.1-1.6-.4c-.4-.3-.6-.7-.8-1.3l-2.9.4c.3,1,.8,1.9,1.7,2.5.9.6,2,.9,3.5.9s2.9-.4,3.7-1.1c.8-.7,1.3-1.6,1.3-2.6s-.3-1.6-.9-2.2c-.6-.5-1.7-.9-3.2-1.3Z"/>
      <path class="st0" d="M151,67.2c-.9-1.1-2.2-1.6-3.9-1.6s-2.6.5-3.6,1.5-1.4,2.4-1.4,4.3.4,2.8,1.1,3.8c.9,1.2,2.3,1.9,4.2,1.9s2.2-.3,3-.8,1.4-1.4,1.8-2.4l-2.9-.5c-.2.5-.4.9-.7,1.2-.3.2-.7.4-1.1.4-.7,0-1.2-.2-1.7-.7s-.7-1.1-.7-2h7.3c0-2.2-.4-3.9-1.4-4.9ZM145.2,70.3c0-.8.2-1.4.6-1.9.4-.5.9-.7,1.6-.7s1.1.2,1.5.7c.4.4.6,1.1.6,1.9h-4.3Z"/>
      <path class="st0" d="M275.8,66c-.6-.3-1.2-.5-2-.5s-1.2.1-1.8.4c-.6.3-1.1.7-1.6,1.3-.3-.6-.8-1-1.3-1.3-.5-.3-1.1-.4-1.8-.4-1.3,0-2.5.6-3.4,1.7v-1.5h-2.7v10.9h2.9v-5.3c0-1.1,0-1.8.2-2.3.2-.5.4-.8.8-1,.4-.2.8-.4,1.2-.4s.7,0,.9.2c.2.2.4.4.5.7s.2,1,.2,2.1v6h2.9v-5.3c0-1,0-1.8.2-2.3.2-.5.4-.8.8-1.1.4-.2.7-.4,1.1-.4s1,.2,1.2.6c.2.3.3,1,.3,2.1v6.3h2.9v-7c0-1,0-1.8-.3-2.3-.3-.6-.7-1.1-1.2-1.4Z"/>
      <path class="st0" d="M178.5,65.6c-1.1,0-2,.2-2.9.7-.9.5-1.5,1.2-2,2.1-.5.9-.7,1.8-.7,2.8s.2,2.3.7,3.2c.5.9,1.2,1.5,2.1,2s1.9.7,2.9.7c1.6,0,3-.5,4-1.6s1.6-2.5,1.6-4.1-.5-3-1.6-4.1c-1.1-1.1-2.4-1.6-4.1-1.6ZM180.4,73.8c-.5.6-1.1.9-1.9.9s-1.4-.3-1.9-.9c-.5-.6-.8-1.4-.8-2.5s.3-1.9.8-2.5c.5-.6,1.2-.9,1.9-.9s1.4.3,1.9.9.8,1.4.8,2.5-.3,1.9-.8,2.5Z"/>
    </g>
  </g>
</svg>