<?xml version="1.0" encoding="UTF-8"?>
<svg id="Layer_1" xmlns="http://www.w3.org/2000/svg" version="1.1" viewBox="0 0 325 100">
  <!-- Generator: Adobe Illustrator 29.1.0, SVG Export Plug-In . SVG Version: 2.1.0 Build 142)  -->
  <defs>
    <style>
      .st0, .st1, .st2 {
        fill: #1050c1;
      }

      .st1 {
        font-size: 46.4px;
      }

      .st1, .st3, .st4 {
        font-family: Poppins-Bold, Poppins;
        font-weight: 700;
      }

      .st5, .st6, .st3, .st4 {
        fill: #fff;
      }

      .st6 {
        font-family: Poppins-SemiBold, Poppins;
        font-size: 5.9px;
        font-weight: 600;
      }

      .st2 {
        fill-rule: evenodd;
      }

      .st3 {
        font-size: 10.3px;
      }

      .st4 {
        font-size: 45.7px;
      }
    </style>
  </defs>
  <g>
    <text class="st6" transform="translate(79.2 69.6)"><tspan x="0" y="0">POWERED BY</tspan></text>
    <g>
      <text class="st3" transform="translate(150.1 70.9)"><tspan x="0" y="0"> </tspan></text>
      <path class="st5" d="M181.1,67.2c-.6-.3-1.6-.6-2.8-.9-1.3-.3-2.1-.6-2.4-.9-.3-.2-.4-.5-.4-.8s.1-.6.4-.8c.4-.3,1-.5,1.8-.5s1.3.1,1.7.4.6.8.7,1.4h2.6c0-1.3-.5-2.3-1.3-3-.8-.7-2.1-1.1-3.7-1.1s-1.9.2-2.6.5c-.7.3-1.3.7-1.6,1.3-.4.6-.6,1.2-.6,1.9,0,1,.4,1.9,1.2,2.6.6.5,1.6.9,3,1.3,1.1.3,1.8.5,2.1.6.5.2.8.3.9.6s.3.5.3.8c0,.5-.2.9-.6,1.3s-1.1.5-1.9.5-1.4-.2-1.9-.6c-.5-.4-.8-1-.9-1.9l-2.6.2c.2,1.5.7,2.6,1.6,3.3.9.8,2.1,1.1,3.8,1.1s2.1-.2,2.8-.5,1.3-.8,1.8-1.5c.4-.7.6-1.4.6-2.1s-.2-1.5-.5-2.1c-.3-.6-.8-1-1.4-1.3Z"/>
      <path class="st5" d="M208.8,72.5c-.2,0-.3,0-.4-.1-.1,0-.2-.2-.2-.3,0-.1,0-.6,0-1.3v-3.8h1.7v-2h-1.7v-3.3l-2.5,1.5v1.9h-1.1v2h1.1v4.1c0,.9,0,1.5,0,1.8,0,.4.2.7.4,1,.2.2.4.4.8.6s.8.2,1.2.2c.7,0,1.4-.1,2-.4l-.2-1.9c-.4.2-.8.2-1,.2Z"/>
      <path class="st5" d="M188.9,71.6l-2.3-6.7h-2.7l3.6,9.5c-.1.5-.4,1-.6,1.3-.3.3-.7.5-1.3.5s-.7,0-1.1-.1l.2,2c.5.1.9.2,1.4.2s.9,0,1.3-.2c.4-.1.7-.2,1-.4s.5-.4.7-.7c.2-.3.4-.7.6-1.3l.6-1.6,3.3-9.1h-2.6l-2.2,6.7Z"/>
      <path class="st5" d="M218.5,66.1c-.8-.9-1.9-1.4-3.3-1.4s-2.3.4-3.1,1.3-1.2,2.1-1.2,3.7.3,2.4.9,3.3c.8,1.1,2,1.6,3.6,1.6s1.9-.2,2.6-.7,1.2-1.2,1.5-2.1l-2.5-.4c-.1.5-.3.8-.6,1-.3.2-.6.3-1,.3-.6,0-1.1-.2-1.4-.6s-.6-1-.6-1.7h6.3c0-1.9-.4-3.3-1.2-4.3ZM213.4,68.9c0-.7.2-1.2.5-1.6.4-.4.8-.6,1.4-.6s.9.2,1.3.6c.4.4.5.9.6,1.6h-3.7Z"/>
      <rect class="st5" x="129.3" y="68.4" width="4.9" height="2.5"/>
      <path class="st5" d="M140.9,72.2c-.3.3-.7.4-1.2.4s-1.1-.2-1.5-.7c-.4-.5-.6-1.3-.6-2.4s.2-1.7.6-2.2c.4-.4.9-.6,1.5-.6s.8.1,1.1.4.5.6.6,1.1l2.5-.4c-.3-1-.8-1.8-1.5-2.3s-1.6-.7-2.7-.7-2.5.4-3.3,1.3c-.8.9-1.2,2.1-1.2,3.6s.4,2.7,1.2,3.6c.8.9,1.9,1.3,3.3,1.3s2.2-.3,2.9-.9c.7-.6,1.2-1.4,1.5-2.6l-2.5-.4c-.1.7-.3,1.1-.6,1.4Z"/>
      <path class="st5" d="M245,69.6c-.5-.4-1.5-.8-2.8-1.1-1.3-.3-2.1-.5-2.3-.7-.2-.1-.2-.3-.2-.5s0-.4.3-.5c.3-.2.8-.3,1.4-.3s.9,0,1.2.3c.3.2.5.5.6.8l2.4-.4c-.2-.8-.7-1.4-1.3-1.9-.6-.4-1.6-.6-2.9-.6s-2.4.3-3,.8c-.6.6-1,1.2-1,2.1s.4,1.6,1.1,2.1c.5.4,1.8.8,3.8,1.2.4.1.7.2.8.3.1.1.2.3.2.5,0,.3-.1.5-.3.7-.3.2-.8.4-1.5.4s-1-.1-1.4-.4c-.3-.3-.5-.6-.6-1.1l-2.5.4c.2.9.7,1.6,1.5,2.1.7.5,1.8.8,3.1.8s2.5-.3,3.2-.9c.7-.6,1.1-1.4,1.1-2.2s-.3-1.4-.8-1.9Z"/>
      <path class="st5" d="M164.8,65.8c-.2-.3-.6-.6-1-.8-.5-.2-1-.3-1.5-.3-1.3,0-2.3.5-3.1,1.6v-1.4h-2.3v9.4h2.5v-4.3c0-1.1,0-1.8.2-2.2s.4-.7.7-.9c.3-.2.7-.4,1.2-.4s.6,0,.9.2.4.4.5.7c.1.3.2,1,.2,2v4.8h2.5v-5.9c0-.7,0-1.3-.1-1.7,0-.4-.3-.7-.5-1Z"/>
      <path class="st5" d="M199.7,68.5c-1.3-.3-2.1-.5-2.3-.7-.2-.1-.2-.3-.2-.5s0-.4.3-.5c.3-.2.8-.3,1.4-.3s.9,0,1.2.3c.3.2.5.5.6.8l2.4-.4c-.2-.8-.7-1.4-1.3-1.9-.6-.4-1.6-.6-2.9-.6s-2.4.3-3,.8c-.6.6-1,1.2-1,2.1s.4,1.6,1.1,2.1c.5.4,1.8.8,3.8,1.2.4.1.7.2.8.3.1.1.2.3.2.5,0,.3-.1.5-.3.7-.3.2-.8.4-1.5.4s-1-.1-1.4-.4c-.3-.3-.5-.6-.6-1.1l-2.5.4c.2.9.7,1.6,1.5,2.1.7.5,1.8.8,3.1.8s2.5-.3,3.2-.9c.7-.6,1.1-1.4,1.1-2.2s-.3-1.4-.8-1.9c-.5-.4-1.5-.8-2.8-1.1Z"/>
      <path class="st5" d="M126.4,66.1c-.8-.9-1.9-1.4-3.3-1.4s-2.3.4-3.1,1.3-1.2,2.1-1.2,3.7.3,2.4.9,3.3c.8,1.1,2,1.6,3.6,1.6s1.9-.2,2.6-.7,1.2-1.2,1.5-2.1l-2.5-.4c-.1.5-.3.8-.6,1-.3.2-.6.3-1,.3-.6,0-1.1-.2-1.4-.6s-.6-1-.6-1.7h6.3c0-1.9-.4-3.3-1.2-4.3ZM121.3,68.9c0-.7.2-1.2.5-1.6.4-.4.8-.6,1.4-.6s.9.2,1.3.6c.4.4.5.9.6,1.6h-3.7Z"/>
      <path class="st5" d="M234,65.1c-.5-.3-1.1-.4-1.8-.4s-1.1.1-1.5.4c-.5.2-.9.6-1.3,1.1-.3-.5-.6-.9-1.1-1.1-.4-.2-1-.4-1.6-.4-1.1,0-2.1.5-2.9,1.5v-1.3h-2.3v9.4h2.5v-4.6c0-.9,0-1.6.2-1.9.1-.4.4-.7.7-.9.3-.2.7-.3,1-.3s.6,0,.8.2c.2.1.3.3.4.6s.1.9.1,1.8v5.2h2.5v-4.5c0-.9,0-1.5.2-2,.1-.4.4-.7.7-.9.3-.2.6-.3,1-.3s.8.2,1.1.5c.2.3.3.9.3,1.8v5.4h2.5v-6c0-.9,0-1.6-.3-2-.2-.5-.6-1-1.1-1.2Z"/>
      <path class="st5" d="M150,64.7c-.9,0-1.8.2-2.5.6-.7.4-1.3,1-1.7,1.8-.4.8-.6,1.6-.6,2.4s.2,2,.6,2.8c.4.8,1,1.3,1.8,1.7s1.6.6,2.5.6c1.4,0,2.6-.5,3.5-1.4s1.4-2.1,1.4-3.6-.5-2.6-1.4-3.5c-.9-.9-2.1-1.4-3.5-1.4ZM151.7,71.8c-.4.5-1,.7-1.6.7s-1.2-.2-1.6-.7c-.4-.5-.7-1.2-.7-2.2s.2-1.7.7-2.2c.4-.5,1-.7,1.6-.7s1.2.2,1.6.7.7,1.2.7,2.1-.2,1.7-.7,2.2Z"/>
    </g>
  </g>
  <g>
    <g>
      <g>
        <rect class="st5" x="96.8" y="22.9" width="22.7" height="7.7"/>
        <rect class="st5" x="96.8" y="47.8" width="22.7" height="7.7"/>
        <g>
          <text class="st4" transform="translate(33.3 55.5)"><tspan x="0" y="0">SH</tspan></text>
          <text class="st4" transform="translate(119.5 55.5)"><tspan x="0" y="0">LF</tspan></text>
          <rect class="st0" x="97.1" y="35.4" width="20" height="6.8"/>
        </g>
      </g>
      <text class="st1" transform="translate(168 55.7)"><tspan x="0" y="0">Vista</tspan></text>
    </g>
    <g>
      <g>
        <path class="st2" d="M274.8,42.2c-.7.5-.4,1.6.5,1.6s1.2-1.1.5-1.6c-.3-.2-.7-.2-.9,0h0Z"/>
        <path class="st2" d="M274.7,42.7c-.3-.2-.2-.7.2-.7s.6.5.2.7c-.1,0-.3,0-.4,0h0Z"/>
        <path class="st2" d="M275.7,43.8c-.2-.1,0-.4.1-.4s.3.3.1.4c0,0-.2,0-.2,0h0Z"/>
      </g>
      <g>
        <path class="st0" d="M274.8,46.5c-.8-.8-1.2-1.8-1.2-2.8h0v-1.2c-.8.9-1.1,2.2-.9,3.3.7.6,1.5,1,2.5,1-.1-.1-.3-.2-.4-.3Z"/>
        <path class="st0" d="M275.2,39c-.9,0-1.8.4-2.5,1,.2,0,.3,0,.5,0,0,0,0,0,0,0,1.1,0,2.1.4,2.8,1.2l.8.8c0-1.2-.8-2.3-1.7-3Z"/>
        <path class="st0" d="M278.1,40c-.7-.6-1.5-1-2.4-1,.1.1.3.2.4.3.8.8,1.2,1.8,1.2,2.9v1.2c.8-.9,1.1-2.2.9-3.3Z"/>
        <path class="st0" d="M277.5,45.9h0c-1.1,0-2.1-.4-2.8-1.2l-.8-.8c0,1.2.8,2.3,1.7,3,.9,0,1.8-.4,2.5-1-.2,0-.4,0-.5,0Z"/>
        <path class="st0" d="M278.3,40.3c0,.2,0,.3,0,.5,0,1.1-.4,2.1-1.2,2.9l-.8.8c1.2,0,2.3-.8,3-1.7,0-.9-.4-1.8-1-2.5Z"/>
        <path class="st0" d="M272.5,40.2c-.6.7-1,1.5-1,2.5.1-.1.2-.3.3-.4.8-.8,1.8-1.2,2.9-1.2h0s1.2,0,1.2,0c-.9-.8-2.2-1.1-3.3-.9Z"/>
        <path class="st0" d="M279,43.5c-.8.8-1.8,1.2-2.8,1.2h-1.2c.9.8,2.2,1.1,3.3.9.6-.7,1-1.5,1-2.5-.1.1-.2.3-.3.4Z"/>
        <path class="st0" d="M274.4,41.3c-1.2,0-2.3.8-3,1.7,0,.9.4,1.8,1,2.5,0-.2,0-.3,0-.5,0-1.1.4-2.1,1.2-2.9l.8-.8Z"/>
      </g>
    </g>
  </g>
</svg>