<?xml version="1.0" encoding="utf-8"?>
<!-- Generator: Adobe Illustrator 28.2.0, SVG Export Plug-In . SVG Version: 6.00 Build 0)  -->
<svg version="1.1" id="Layer_1" xmlns="http://www.w3.org/2000/svg" xmlns:xlink="http://www.w3.org/1999/xlink" x="0px" y="0px"
	 viewBox="0 0 325 100" style="enable-background:new 0 0 325 100;" xml:space="preserve">
<style type="text/css">
	.st0{fill:#1D4F9F;}
	.st1{fill:#036534;}
	.st2{fill:#065C2F;}
	.st3{fill:#1054C1;}
	.st4{fill-rule:evenodd;clip-rule:evenodd;fill:#1054C1;}
	.st5{fill-rule:evenodd;clip-rule:evenodd;fill:#FFFFFF;}
</style>
<g>
	<g>
		<path class="st0" d="M39.1,58.06c-0.13,0.24-0.33,0.43-0.61,0.58c-0.28,0.15-0.63,0.22-1.05,0.22h-0.86v1.97h-1.03V55.7h1.89
			c0.4,0,0.73,0.07,1.01,0.21c0.28,0.14,0.49,0.33,0.63,0.57c0.14,0.24,0.21,0.51,0.21,0.82C39.29,57.56,39.23,57.82,39.1,58.06z
			 M38.03,57.83c0.14-0.13,0.21-0.31,0.21-0.55c0-0.5-0.28-0.75-0.84-0.75h-0.82v1.49h0.82C37.68,58.03,37.89,57.96,38.03,57.83z"/>
		<path class="st0" d="M41.08,60.54c-0.4-0.23-0.72-0.54-0.96-0.94c-0.24-0.4-0.35-0.85-0.35-1.36c0-0.5,0.12-0.95,0.35-1.35
			c0.23-0.4,0.55-0.71,0.96-0.94c0.4-0.22,0.84-0.34,1.32-0.34c0.48,0,0.93,0.11,1.33,0.34c0.4,0.23,0.71,0.54,0.95,0.94
			c0.23,0.4,0.35,0.85,0.35,1.35c0,0.5-0.12,0.96-0.35,1.36c-0.23,0.4-0.55,0.71-0.95,0.94c-0.4,0.22-0.84,0.34-1.32,0.34
			C41.92,60.88,41.48,60.77,41.08,60.54z M43.21,59.75c0.23-0.14,0.42-0.34,0.55-0.6c0.13-0.26,0.2-0.56,0.2-0.9s-0.07-0.64-0.2-0.9
			c-0.13-0.26-0.32-0.46-0.55-0.59c-0.24-0.14-0.51-0.21-0.82-0.21s-0.58,0.07-0.82,0.21c-0.24,0.14-0.42,0.33-0.55,0.59
			c-0.13,0.26-0.2,0.56-0.2,0.9s0.07,0.64,0.2,0.9s0.32,0.46,0.55,0.6c0.24,0.14,0.51,0.21,0.82,0.21S42.98,59.89,43.21,59.75z"/>
		<path class="st0" d="M52.64,55.7l-1.43,5.13H50l-0.96-3.65l-1.01,3.65l-1.21,0.01l-1.38-5.14h1.1l0.9,3.98l1.04-3.98h1.15
			l0.98,3.96l0.91-3.96H52.64z"/>
		<path class="st0" d="M54.34,56.53v1.29h1.73v0.82h-1.73v1.36h1.95v0.84h-2.98v-5.14h2.98v0.84H54.34z"/>
		<path class="st0" d="M59.86,60.83l-1.13-2h-0.48v2h-1.03V55.7h1.93c0.4,0,0.73,0.07,1.01,0.21s0.49,0.33,0.63,0.57
			c0.14,0.24,0.21,0.5,0.21,0.8c0,0.34-0.1,0.64-0.29,0.91c-0.2,0.27-0.49,0.46-0.87,0.56l1.23,2.08H59.86z M58.25,58.06h0.86
			c0.28,0,0.49-0.07,0.62-0.2c0.14-0.13,0.21-0.32,0.21-0.56c0-0.24-0.07-0.42-0.21-0.55c-0.14-0.13-0.35-0.2-0.62-0.2h-0.86V58.06z
			"/>
		<path class="st0" d="M62.96,56.53v1.29h1.73v0.82h-1.73v1.36h1.95v0.84h-2.98v-5.14h2.98v0.84H62.96z"/>
		<path class="st0" d="M69.05,56.02c0.41,0.21,0.72,0.51,0.95,0.9c0.22,0.39,0.33,0.84,0.33,1.36c0,0.51-0.11,0.96-0.33,1.35
			c-0.22,0.38-0.54,0.68-0.95,0.89c-0.41,0.21-0.88,0.32-1.42,0.32h-1.79V55.7h1.79C68.17,55.7,68.64,55.8,69.05,56.02z
			 M68.84,59.51c0.29-0.29,0.44-0.71,0.44-1.24s-0.15-0.95-0.44-1.25c-0.29-0.3-0.71-0.45-1.25-0.45h-0.73v3.39h0.73
			C68.13,59.95,68.55,59.81,68.84,59.51z"/>
		<path class="st0" d="M76.48,58.63c0.19,0.24,0.28,0.5,0.28,0.81c0,0.27-0.07,0.52-0.2,0.72c-0.13,0.21-0.33,0.37-0.58,0.49
			c-0.25,0.12-0.56,0.18-0.9,0.18h-2.21V55.7h2.12c0.35,0,0.65,0.06,0.9,0.17c0.25,0.11,0.44,0.27,0.57,0.47s0.19,0.43,0.19,0.68
			c0,0.3-0.08,0.55-0.24,0.75c-0.16,0.2-0.37,0.34-0.64,0.43C76.05,58.25,76.29,58.4,76.48,58.63z M73.88,57.82h0.94
			c0.25,0,0.43-0.05,0.57-0.17s0.2-0.27,0.2-0.47c0-0.21-0.07-0.37-0.2-0.48c-0.13-0.11-0.32-0.17-0.57-0.17h-0.94V57.82z
			 M75.5,59.81c0.14-0.12,0.21-0.28,0.21-0.5c0-0.22-0.07-0.39-0.22-0.52s-0.35-0.19-0.6-0.19h-1.01v1.38h1.04
			C75.17,59.99,75.36,59.93,75.5,59.81z"/>
		<path class="st0" d="M81.66,55.7l-1.73,3.34v1.79h-1.03v-1.79l-1.74-3.34h1.16l1.1,2.34l1.09-2.34H81.66z"/>
	</g>
</g>
<path class="st1" d="M180.98,68.79c-0.98-0.52-2.51-1.02-4.56-1.51c-2.06-0.49-3.35-0.95-3.89-1.4c-0.42-0.35-0.63-0.78-0.63-1.27
	c0-0.54,0.22-0.98,0.67-1.3c0.69-0.5,1.66-0.76,2.89-0.76c1.19,0,2.08,0.24,2.68,0.71c0.6,0.47,0.98,1.25,1.16,2.32l4.23-0.19
	c-0.07-1.92-0.76-3.46-2.09-4.61c-1.33-1.15-3.31-1.73-5.93-1.73c-1.61,0-2.98,0.24-4.12,0.73c-1.14,0.49-2.01,1.19-2.61,2.12
	c-0.61,0.93-0.91,1.93-0.91,2.99c0,1.66,0.64,3.06,1.93,4.21c0.91,0.82,2.5,1.51,4.77,2.07c1.76,0.44,2.89,0.74,3.39,0.91
	c0.72,0.26,1.23,0.56,1.52,0.91c0.29,0.35,0.44,0.77,0.44,1.26c0,0.77-0.35,1.45-1.04,2.02c-0.69,0.58-1.72,0.86-3.08,0.86
	c-1.29,0-2.31-0.32-3.06-0.97c-0.76-0.65-1.26-1.66-1.51-3.04l-4.11,0.4c0.28,2.34,1.12,4.13,2.54,5.35
	c1.42,1.22,3.45,1.84,6.1,1.84c1.82,0,3.34-0.25,4.56-0.76c1.22-0.51,2.16-1.29,2.83-2.34c0.67-1.05,1-2.17,1-3.37
	c0-1.32-0.28-2.44-0.84-3.34C182.74,70.02,181.97,69.31,180.98,68.79z"/>
<path class="st1" d="M225.53,77.37c-0.27,0-0.49-0.07-0.68-0.2c-0.19-0.13-0.3-0.3-0.36-0.51c-0.05-0.2-0.08-0.93-0.08-2.16v-6.11
	h2.74v-3.2h-2.74v-5.36l-4.03,2.34v3.01h-1.84v3.2h1.84V75c0,1.42,0.04,2.36,0.13,2.83c0.11,0.66,0.29,1.18,0.56,1.56
	c0.27,0.39,0.7,0.7,1.28,0.94c0.58,0.24,1.23,0.36,1.96,0.36c1.18,0,2.24-0.2,3.17-0.6l-0.34-3.11
	C226.44,77.24,225.9,77.37,225.53,77.37z"/>
<path class="st1" d="M193.66,75.95l-3.63-10.77h-4.27l5.77,15.21c-0.24,0.85-0.58,1.54-1.03,2.09c-0.45,0.55-1.14,0.82-2.07,0.82
	c-0.5,0-1.07-0.06-1.7-0.19l0.36,3.14c0.74,0.16,1.5,0.24,2.27,0.24c0.76,0,1.45-0.08,2.05-0.24c0.61-0.16,1.11-0.39,1.53-0.68
	s0.78-0.67,1.1-1.14c0.32-0.47,0.65-1.14,1.01-2.03l0.96-2.64l5.36-14.6h-4.16L193.66,75.95z"/>
<path class="st1" d="M241.07,67.07c-1.3-1.49-3.08-2.24-5.34-2.24c-2.01,0-3.67,0.71-4.99,2.14s-1.97,3.39-1.97,5.91
	c0,2.1,0.5,3.85,1.5,5.23c1.27,1.72,3.22,2.59,5.86,2.59c1.67,0,3.05-0.38,4.16-1.15c1.11-0.77,1.92-1.88,2.44-3.35l-4-0.67
	c-0.22,0.76-0.54,1.31-0.97,1.66c-0.43,0.34-0.96,0.51-1.59,0.51c-0.92,0-1.7-0.33-2.31-0.99s-0.94-1.59-0.97-2.78h10.06
	C243,70.85,242.37,68.56,241.07,67.07z M232.95,71.47c-0.01-1.09,0.27-1.96,0.84-2.6c0.57-0.64,1.29-0.96,2.17-0.96
	c0.82,0,1.51,0.3,2.09,0.91c0.57,0.6,0.87,1.49,0.9,2.65H232.95z"/>
<rect x="97.81" y="70.75" class="st1" width="7.89" height="4.01"/>
<path class="st1" d="M116.46,76.77c-0.49,0.43-1.11,0.65-1.87,0.65c-1.02,0-1.83-0.37-2.44-1.11c-0.61-0.74-0.91-2.01-0.91-3.81
	c0-1.62,0.3-2.77,0.89-3.46c0.59-0.69,1.39-1.04,2.39-1.04c0.75,0,1.36,0.2,1.84,0.6c0.47,0.4,0.77,1,0.91,1.79l3.96-0.71
	c-0.48-1.63-1.26-2.84-2.35-3.64s-2.56-1.19-4.41-1.19c-2.26,0-4.05,0.7-5.37,2.09c-1.32,1.4-1.99,3.34-1.99,5.85
	c0,2.48,0.66,4.41,1.98,5.81c1.32,1.4,3.09,2.1,5.31,2.1c1.95,0,3.51-0.46,4.67-1.39c1.16-0.92,1.95-2.29,2.36-4.1l-3.94-0.67
	C117.29,75.6,116.95,76.34,116.46,76.77z"/>
<path class="st1" d="M283.72,72.62c-0.85-0.7-2.34-1.3-4.48-1.79c-2.14-0.49-3.39-0.86-3.75-1.13c-0.27-0.2-0.4-0.44-0.4-0.73
	c0-0.33,0.15-0.6,0.46-0.81c0.46-0.3,1.22-0.44,2.27-0.44c0.84,0,1.48,0.16,1.94,0.47c0.45,0.31,0.76,0.77,0.92,1.36l3.79-0.7
	c-0.38-1.32-1.08-2.32-2.09-3c-1.01-0.68-2.55-1.01-4.63-1.01c-2.18,0-3.79,0.45-4.83,1.34c-1.04,0.89-1.56,2-1.56,3.31
	c0,1.46,0.6,2.6,1.8,3.41c0.87,0.59,2.92,1.24,6.16,1.96c0.69,0.16,1.14,0.34,1.34,0.53c0.19,0.2,0.29,0.45,0.29,0.76
	c0,0.45-0.18,0.8-0.53,1.07c-0.52,0.38-1.3,0.57-2.34,0.57c-0.94,0-1.68-0.2-2.2-0.61c-0.52-0.41-0.87-1-1.04-1.78l-4.03,0.61
	c0.37,1.44,1.16,2.58,2.36,3.41c1.2,0.84,2.84,1.26,4.91,1.26c2.28,0,3.99-0.5,5.16-1.5c1.16-1,1.74-2.19,1.74-3.59
	C284.98,74.33,284.56,73.34,283.72,72.62z"/>
<path class="st1" d="M154.94,66.54c-0.38-0.5-0.93-0.9-1.67-1.22c-0.73-0.32-1.54-0.48-2.43-0.48c-2.01,0-3.68,0.86-5,2.57v-2.23
	h-3.73v15.17h4.01v-6.87c0-1.7,0.1-2.86,0.31-3.49c0.2-0.63,0.58-1.13,1.14-1.51c0.55-0.38,1.18-0.57,1.87-0.57
	c0.54,0,1.01,0.13,1.39,0.4s0.66,0.64,0.84,1.12c0.17,0.48,0.26,1.54,0.26,3.18v7.74h4.01v-9.43c0-1.17-0.07-2.07-0.22-2.7
	C155.58,67.6,155.32,67.03,154.94,66.54z"/>
<path class="st1" d="M210.95,70.84c-2.14-0.49-3.39-0.86-3.75-1.13c-0.27-0.2-0.4-0.44-0.4-0.73c0-0.33,0.15-0.6,0.46-0.81
	c0.46-0.3,1.22-0.44,2.27-0.44c0.84,0,1.48,0.16,1.94,0.47c0.45,0.31,0.76,0.77,0.92,1.36l3.79-0.7c-0.38-1.32-1.08-2.32-2.09-3
	c-1.01-0.68-2.55-1.01-4.63-1.01c-2.18,0-3.79,0.45-4.83,1.34c-1.04,0.89-1.56,2-1.56,3.31c0,1.46,0.6,2.6,1.8,3.41
	c0.87,0.59,2.92,1.24,6.16,1.96c0.69,0.16,1.14,0.34,1.34,0.53c0.19,0.2,0.29,0.45,0.29,0.76c0,0.45-0.18,0.8-0.53,1.07
	c-0.52,0.38-1.31,0.57-2.34,0.57c-0.94,0-1.68-0.2-2.2-0.61c-0.52-0.41-0.87-1-1.04-1.78l-4.03,0.61c0.37,1.44,1.16,2.58,2.36,3.41
	c1.2,0.84,2.84,1.26,4.91,1.26c2.28,0,3.99-0.5,5.16-1.5c1.16-1,1.74-2.19,1.74-3.59c0-1.28-0.42-2.27-1.26-2.99
	C214.58,71.92,213.09,71.32,210.95,70.84z"/>
<path class="st1" d="M93.12,67.07c-1.3-1.49-3.08-2.24-5.34-2.24c-2.01,0-3.67,0.71-4.99,2.14c-1.31,1.42-1.97,3.39-1.97,5.91
	c0,2.1,0.5,3.85,1.5,5.23c1.27,1.72,3.22,2.59,5.86,2.59c1.67,0,3.05-0.38,4.16-1.15c1.11-0.77,1.92-1.88,2.44-3.35l-4-0.67
	c-0.22,0.76-0.54,1.31-0.97,1.66c-0.43,0.34-0.96,0.51-1.59,0.51c-0.92,0-1.7-0.33-2.31-0.99s-0.94-1.59-0.97-2.78h10.06
	C95.05,70.85,94.43,68.56,93.12,67.07z M85.01,71.47c-0.01-1.09,0.27-1.96,0.84-2.6c0.57-0.64,1.29-0.96,2.17-0.96
	c0.82,0,1.51,0.3,2.09,0.91c0.57,0.6,0.87,1.49,0.9,2.65H85.01z"/>
<path class="st1" d="M266.08,65.52c-0.77-0.45-1.71-0.68-2.83-0.68c-0.88,0-1.7,0.2-2.47,0.6c-0.77,0.4-1.49,1-2.16,1.81
	c-0.46-0.81-1.04-1.41-1.76-1.81c-0.71-0.4-1.56-0.6-2.53-0.6c-1.83,0-3.4,0.8-4.73,2.41v-2.07h-3.7v15.17h4.01v-7.37
	c0-1.46,0.11-2.5,0.32-3.13c0.21-0.63,0.57-1.11,1.06-1.44c0.5-0.33,1.05-0.5,1.67-0.5c0.51,0,0.92,0.1,1.22,0.31
	c0.3,0.21,0.52,0.53,0.66,0.96s0.21,1.38,0.21,2.86v8.31h4.01v-7.28c0-1.43,0.11-2.47,0.33-3.14c0.22-0.66,0.58-1.16,1.07-1.51
	c0.49-0.34,1.02-0.51,1.59-0.51c0.77,0,1.34,0.29,1.72,0.86c0.28,0.44,0.41,1.41,0.41,2.91v8.67h4.01v-9.7
	c0-1.45-0.14-2.49-0.41-3.14C267.43,66.63,266.85,65.97,266.08,65.52z"/>
<path class="st1" d="M131.16,64.84c-1.49,0-2.83,0.33-4.03,0.99c-1.2,0.66-2.14,1.61-2.79,2.86c-0.66,1.25-0.99,2.54-0.99,3.87
	c0,1.74,0.33,3.22,0.99,4.44c0.66,1.21,1.62,2.14,2.88,2.76c1.26,0.63,2.59,0.94,3.98,0.94c2.25,0,4.11-0.75,5.59-2.26
	s2.22-3.41,2.22-5.71c0-2.28-0.73-4.16-2.2-5.65C135.34,65.58,133.46,64.84,131.16,64.84z M133.81,76.22
	c-0.71,0.8-1.59,1.2-2.64,1.2s-1.93-0.4-2.64-1.2c-0.71-0.8-1.07-1.95-1.07-3.46c0-1.5,0.36-2.66,1.07-3.46
	c0.71-0.8,1.6-1.2,2.64-1.2s1.93,0.4,2.64,1.2c0.71,0.8,1.06,1.94,1.06,3.43C134.88,74.26,134.52,75.42,133.81,76.22z"/>
<g>
	<rect x="93.63" y="18.11" class="st2" width="22.1" height="7.47"/>
	<rect x="93.63" y="42.27" class="st2" width="22.1" height="7.47"/>
	<g>
		<g>
			<g>
				<path class="st2" d="M39.8,48.94c-1.81-0.74-3.25-1.84-4.34-3.29s-1.65-3.2-1.71-5.25h8.1c0.12,1.16,0.52,2.04,1.2,2.65
					c0.68,0.61,1.57,0.91,2.67,0.91c1.13,0,2.02-0.26,2.67-0.78c0.65-0.52,0.98-1.24,0.98-2.16c0-0.77-0.26-1.41-0.78-1.91
					c-0.52-0.5-1.16-0.92-1.91-1.25s-1.83-0.7-3.23-1.11c-2.02-0.62-3.66-1.25-4.94-1.87c-1.28-0.62-2.37-1.54-3.29-2.76
					c-0.92-1.22-1.38-2.8-1.38-4.76c0-2.91,1.05-5.18,3.16-6.83c2.11-1.65,4.85-2.47,8.23-2.47c3.44,0,6.21,0.82,8.32,2.47
					c2.1,1.65,3.23,3.94,3.38,6.87H48.7c-0.06-1.01-0.43-1.8-1.11-2.38c-0.68-0.58-1.56-0.87-2.62-0.87c-0.92,0-1.66,0.24-2.22,0.73
					c-0.56,0.49-0.85,1.19-0.85,2.11c0,1.01,0.47,1.79,1.42,2.36c0.95,0.56,2.43,1.17,4.45,1.82c2.02,0.68,3.65,1.33,4.92,1.96
					c1.26,0.62,2.35,1.53,3.27,2.71c0.92,1.19,1.38,2.71,1.38,4.58c0,1.78-0.45,3.4-1.36,4.85c-0.9,1.45-2.22,2.61-3.94,3.47
					c-1.72,0.86-3.75,1.29-6.09,1.29C43.66,50.05,41.61,49.68,39.8,48.94z"/>
				<path class="st2" d="M89.04,18.52v31.23h-7.61V36.89H69.61v12.85H62V18.52h7.61v12.23h11.83V18.52H89.04z"/>
			</g>
		</g>
		<g>
			<g>
				<path class="st2" d="M126.09,43.87h9.96v5.87h-17.57V18.52h7.61V43.87z"/>
				<path class="st2" d="M160.03,18.52v6.09h-12.72v6.58h9.52v5.92h-9.52v12.63h-7.61V18.52H160.03z"/>
			</g>
		</g>
		<rect x="93.92" y="30.26" class="st3" width="19.48" height="6.58"/>
	</g>
</g>
<g>
	<g>
		<path class="st3" d="M186.36,18.49v6.18h-8.39v25.48h-7.71V24.67h-8.39v-6.18H186.36z"/>
		<path class="st3" d="M201.33,25.91c1.35-0.8,2.86-1.2,4.51-1.2v8.16h-2.12c-1.92,0-3.37,0.41-4.33,1.24
			c-0.96,0.83-1.44,2.28-1.44,4.35v11.68h-7.71V24.98h7.71v4.2C198.85,27.79,199.98,26.7,201.33,25.91z"/>
		<path class="st3" d="M209.47,30.71c0.98-1.95,2.31-3.46,3.99-4.51c1.68-1.05,3.56-1.58,5.64-1.58c1.77,0,3.33,0.36,4.67,1.08
			c1.34,0.72,2.37,1.67,3.09,2.84v-3.56h7.71v25.17h-7.71v-3.56c-0.75,1.17-1.8,2.12-3.13,2.84s-2.89,1.08-4.67,1.08
			c-2.04,0-3.91-0.53-5.59-1.6c-1.68-1.07-3.01-2.59-3.99-4.56s-1.47-4.25-1.47-6.83C208.01,34.94,208.5,32.67,209.47,30.71z
			 M225.26,33.01c-1.07-1.11-2.37-1.67-3.9-1.67c-1.53,0-2.83,0.55-3.9,1.65s-1.6,2.61-1.6,4.53c0,1.92,0.53,3.45,1.6,4.58
			c1.07,1.13,2.37,1.69,3.9,1.69c1.53,0,2.83-0.56,3.9-1.67c1.07-1.11,1.6-2.63,1.6-4.55C226.86,35.64,226.33,34.12,225.26,33.01z"
			/>
		<path class="st3" d="M240.24,30.71c1.07-1.95,2.56-3.46,4.46-4.51c1.91-1.05,4.1-1.58,6.56-1.58c3.16,0,5.8,0.83,7.92,2.48
			c2.12,1.65,3.51,3.98,4.17,6.99h-8.21c-0.69-1.92-2.03-2.89-4.01-2.89c-1.41,0-2.54,0.55-3.38,1.65s-1.26,2.67-1.26,4.71
			s0.42,3.62,1.26,4.71s1.97,1.65,3.38,1.65c1.98,0,3.32-0.96,4.01-2.89h8.21c-0.66,2.95-2.06,5.26-4.2,6.95
			c-2.13,1.68-4.77,2.53-7.89,2.53c-2.47,0-4.65-0.53-6.56-1.58s-3.4-2.56-4.46-4.51c-1.07-1.95-1.6-4.24-1.6-6.86
			C238.63,34.95,239.17,32.67,240.24,30.71z"/>
		<path class="st3" d="M282.84,50.15l-7.67-10.55v10.55h-7.71V16.77h7.71v18.45l7.62-10.24h9.52l-10.46,12.63l10.55,12.54H282.84z"
			/>
	</g>
</g>
<g>
	<path class="st4" d="M220.6,36.98c-0.68,0.46-0.36,1.52,0.46,1.52c0.82,0,1.15-1.06,0.46-1.52
		C221.25,36.79,220.88,36.79,220.6,36.98L220.6,36.98z"/>
	<path class="st5" d="M220.54,37.39c-0.32-0.22-0.17-0.72,0.22-0.72c0.39,0,0.54,0.5,0.22,0.72
		C220.85,37.48,220.67,37.48,220.54,37.39L220.54,37.39z"/>
	<path class="st5" d="M221.44,38.49c-0.16-0.11-0.08-0.35,0.11-0.35c0.19,0,0.27,0.25,0.11,0.35
		C221.59,38.54,221.5,38.54,221.44,38.49L221.44,38.49z"/>
</g>
<g>
	<g>
		<g>
			<path class="st3" d="M220.59,41.1c-0.74-0.74-1.15-1.72-1.16-2.77l0,0v-1.15c-0.8,0.91-1.08,2.12-0.85,3.25
				c0.64,0.59,1.47,0.96,2.4,1.01C220.84,41.34,220.71,41.22,220.59,41.1z"/>
		</g>
		<g>
			<path class="st3" d="M221.03,33.78c-0.92,0.03-1.76,0.39-2.4,0.97c0.16-0.02,0.33-0.03,0.5-0.03c0,0,0.01,0,0.01,0
				c1.04,0,2.03,0.41,2.77,1.15l0.82,0.82C222.65,35.46,221.99,34.4,221.03,33.78z"/>
		</g>
		<g>
			<path class="st3" d="M223.78,34.79c-0.63-0.58-1.46-0.96-2.38-1.01c0.13,0.1,0.26,0.21,0.38,0.33c0.74,0.74,1.16,1.72,1.16,2.77
				l0,1.15C223.73,37.12,224.02,35.91,223.78,34.79z"/>
		</g>
		<g>
			<path class="st3" d="M223.23,40.5c0,0-0.01,0-0.01,0c-1.04,0-2.02-0.4-2.76-1.13l-0.82-0.81c0.08,1.21,0.74,2.27,1.7,2.89
				c0.92-0.04,1.76-0.4,2.41-0.98C223.58,40.48,223.41,40.49,223.23,40.5z"/>
		</g>
		<g>
			<path class="st3" d="M224.04,35.05c0.02,0.17,0.03,0.33,0.03,0.5c0,1.05-0.4,2.03-1.14,2.78l-0.81,0.81
				c1.21-0.08,2.27-0.74,2.89-1.7C224.97,36.53,224.61,35.69,224.04,35.05z"/>
		</g>
		<g>
			<path class="st3" d="M218.37,35c-0.59,0.64-0.97,1.47-1.02,2.4c0.1-0.13,0.21-0.26,0.33-0.38c0.74-0.74,1.72-1.15,2.77-1.16l0,0
				h1.16C220.7,35.05,219.49,34.76,218.37,35z"/>
		</g>
		<g>
			<path class="st3" d="M224.67,38.2c-0.74,0.74-1.72,1.15-2.77,1.16l-1.15,0c0.91,0.8,2.12,1.08,3.25,0.84
				c0.58-0.64,0.96-1.47,1-2.39C224.91,37.95,224.79,38.08,224.67,38.2z"/>
		</g>
		<g>
			<path class="st3" d="M220.24,36.07c-1.21,0.08-2.27,0.73-2.89,1.69c0.04,0.92,0.4,1.76,0.98,2.41c-0.02-0.17-0.03-0.34-0.03-0.51
				c0-1.05,0.4-2.04,1.14-2.78L220.24,36.07z"/>
		</g>
	</g>
</g>
</svg>
